<svg xmlns="http://www.w3.org/2000/svg" id="svg0.33103059147354297" viewBox="0 0 264 264"><path d="M0 0 C87.12 0 174.24 0 264 0 C264 87.12 264 174.24 264 264 C176.88 264 89.76 264 0 264 C0 176.88 0 89.76 0 0 Z " transform="translate(0,0)" style="fill: #0E1106;"/><path d="M0 0 C0.8825798 -0.00686325 1.76515961 -0.0137265 2.67448425 -0.02079773 C5.56448895 -0.03895726 8.45394516 -0.03524387 11.34399414 -0.02954102 C13.36983921 -0.03410792 15.39568274 -0.039415 17.42152405 -0.04542542 C21.65705682 -0.05433517 25.89240083 -0.05195761 30.12792969 -0.04199219 C35.53577097 -0.03050366 40.94295914 -0.05072343 46.35071468 -0.07990932 C50.53137804 -0.09831998 54.71188628 -0.09796919 58.89258003 -0.0922718 C60.88553343 -0.0921192 62.87849776 -0.09811326 64.87141228 -0.11056328 C84.79379033 -0.21750502 84.79379033 -0.21750502 92.69165039 4.40405273 C93.66618164 4.95706055 94.64071289 5.51006836 95.64477539 6.07983398 C104.43758375 12.34545763 111.56590242 19.74572318 114.69165039 30.40405273 C115.77803206 37.17949795 115.51386581 44.10726667 115.45336914 50.94702148 C115.45487447 52.92613455 115.45831161 54.905247 115.46357727 56.88435364 C115.46788815 61.0122374 115.45122219 65.13933431 115.41894531 69.26708984 C115.37908831 74.53952918 115.38851041 79.81050104 115.41318035 85.08298779 C115.42740446 89.16245928 115.4172455 93.24159162 115.39966774 97.3210392 C115.39384831 99.26456199 115.39507506 101.20811991 115.40369225 103.15163231 C115.46013342 122.22486299 115.46013342 122.22486299 109.69165039 129.40405273 C109.24178268 130.08586105 108.79191498 130.76766937 108.32841492 131.47013855 C107.1990342 133.17275282 105.95545049 134.79868503 104.69165039 136.40405273 C104.03165039 136.40405273 103.37165039 136.40405273 102.69165039 136.40405273 C102.36165039 137.39405273 102.03165039 138.38405273 101.69165039 139.40405273 C98.99633789 141.15795898 98.99633789 141.15795898 95.56665039 142.96655273 C94.45032227 143.5659668 93.33399414 144.16538086 92.18383789 144.78295898 C85.71055686 147.78789369 80.04112253 148.69771625 73.02172852 148.64697266 C72.18338974 148.648871 71.34505096 148.65076935 70.48130798 148.65272522 C67.72840827 148.6564098 64.97577639 148.64576098 62.22290039 148.63452148 C60.29911327 148.63332813 58.37532556 148.63287685 56.45153809 148.63313293 C52.42688326 148.63157201 48.40231788 148.62331263 44.37768555 148.60986328 C39.22978562 148.59287418 34.08198383 148.58904924 28.93405914 148.58980846 C24.96371532 148.58953598 20.99339276 148.58404215 17.02305603 148.57680702 C15.12532207 148.57363456 13.22758571 148.57165628 11.32984924 148.57091331 C8.67371555 148.56873461 6.01768386 148.55995751 3.36157227 148.54931641 C2.19554726 148.54999619 2.19554726 148.54999619 1.00596619 148.5506897 C-3.53024685 148.52424284 -7.83177498 148.1469696 -12.30834961 147.40405273 C-12.30834961 146.74405273 -12.30834961 146.08405273 -12.30834961 145.40405273 C-13.33959961 145.34217773 -14.37084961 145.28030273 -15.43334961 145.21655273 C-23.76344117 143.46992063 -28.55673745 136.01329105 -33.30834961 129.40405273 C-37.4550106 122.66317527 -39.46037281 118.0375759 -39.51708984 110.08984375 C-39.52687363 109.22939957 -39.53665741 108.36895538 -39.54673767 107.48243713 C-39.57673642 104.6242935 -39.59809749 101.76619716 -39.61694336 98.90795898 C-39.62351519 97.93059217 -39.63008701 96.95322536 -39.63685799 95.94624138 C-39.66948194 90.76593346 -39.69391723 85.58564627 -39.71337891 80.40527344 C-39.73114329 76.12859846 -39.7658808 71.85258891 -39.81591797 67.57617188 C-39.87634052 62.40609075 -39.90688625 57.23662337 -39.91655159 52.06620598 C-39.92507572 50.10192671 -39.94381809 48.13766247 -39.97329521 46.17358589 C-40.12844091 35.24132208 -40.24098893 26.48902321 -33.30834961 17.40405273 C-32.61870117 16.45788086 -31.92905273 15.51170898 -31.21850586 14.53686523 C-22.11531775 4.64460586 -13.65319212 -0.07567331 0 0 Z " transform="translate(97.308349609375,67.595947265625)" style="fill: #F8FAF9;"/><path d="M0 0 C0 87.12 0 174.24 0 264 C-87.12 264 -174.24 264 -264 264 C-264 262.35 -264 260.7 -264 259 C-263.34 259 -262.68 259 -262 259 C-262.00523682 258.00782471 -262.01047363 257.01564941 -262.01586914 255.9934082 C-262.03421468 252.2491143 -262.04553795 248.50482421 -262.05493164 244.76049805 C-262.05990528 243.15176725 -262.06668657 241.54304084 -262.07543945 239.93432617 C-262.12685228 230.22939971 -261.95165014 220.66777833 -261 211 C-260.34 211.33 -259.68 211.66 -259 212 C-259 213.98 -259 215.96 -259 218 C-258.01 217.67 -257.02 217.34 -256 217 C-255.67 217.99 -255.34 218.98 -255 220 C-252.49552484 221.21869929 -252.49552484 221.21869929 -250 222 C-250 222.66 -250 223.32 -250 224 C-249.34 224 -248.68 224 -248 224 C-247.67 223.01 -247.34 222.02 -247 221 C-246.34 221.33 -245.68 221.66 -245 222 C-245 222.66 -245 223.32 -245 224 C-244.05125 224.061875 -243.1025 224.12375 -242.125 224.1875 C-238.60637489 224.66290495 -235.88775283 225.92617708 -232.7421875 227.55078125 C-231.40583252 228.23587769 -231.40583252 228.23587769 -230.04248047 228.93481445 C-229.36846191 229.28632568 -228.69444336 229.63783691 -228 230 C-228.12117188 229.09233887 -228.24234375 228.18467773 -228.3671875 227.24951172 C-228.81756427 223.86172571 -229.26443516 220.47351463 -229.70898438 217.08496094 C-229.90160442 215.62221207 -230.0955948 214.15964295 -230.29101562 212.69726562 C-230.5726736 210.58770489 -230.84929557 208.47753357 -231.125 206.3671875 C-231.37636719 204.46622314 -231.37636719 204.46622314 -231.6328125 202.52685547 C-231.96947994 199.29314678 -232.21341752 196.24453912 -232 193 C-230.0625 190.875 -230.0625 190.875 -228 189 C-227.2127322 186.8618034 -227.2127322 186.8618034 -227 185 C-226.01 185 -225.02 185 -224 185 C-223.67 186.32 -223.34 187.64 -223 189 C-222.34 188.67 -221.68 188.34 -221 188 C-218.6670134 187.95977609 -216.33293334 187.95679753 -214 188 C-213.67 188.99 -213.34 189.98 -213 191 C-211.35 191 -209.7 191 -208 191 C-207.896875 192.2375 -207.79375 193.475 -207.6875 194.75 C-207.24736762 198.37949746 -206.34645684 200.16469798 -204 203 C-202.69104578 207.28385019 -202.92477474 211.56170952 -203 216 C-201.741875 215.814375 -200.48375 215.62875 -199.1875 215.4375 C-196.17255732 214.99267239 -194.99531539 215.00156154 -192 216 C-191.6278958 217.32303717 -191.29369827 218.65737935 -191 220 C-190.34 220.33 -189.68 220.66 -189 221 C-189 222.32 -189 223.64 -189 225 C-188.34 225 -187.68 225 -187 225 C-183.38247261 230.66221678 -183.30959957 236.40232633 -183 243 C-182.34 242.01 -181.68 241.02 -181 240 C-180.01 240.33 -179.02 240.66 -178 241 C-177.7834375 241.9590625 -177.7834375 241.9590625 -177.5625 242.9375 C-177.20848373 245.14184359 -177.20848373 245.14184359 -175.25 246.125 C-174.5075 246.41375 -173.765 246.7025 -173 247 C-171.8553125 247.556875 -171.8553125 247.556875 -170.6875 248.125 C-167.36839066 249.20564025 -164.46804489 249.13600176 -161 249 C-160.67 246.03 -160.34 243.06 -160 240 C-159.34 240.33 -158.68 240.66 -158 241 C-157.40644386 243.64860427 -157.25790731 246.29197322 -157 249 C-155.02 249.66 -153.04 250.32 -151 251 C-151 252.32 -151 253.64 -151 255 C-149.02 255.33 -147.04 255.66 -145 256 C-145 256.99 -145 257.98 -145 259 C-141.72226496 258.24849977 -141.72226496 258.24849977 -140 255 C-139.01 255 -138.02 255 -137 255 C-137.495 253.6696875 -137.495 253.6696875 -138 252.3125 C-138.91222143 249.29076653 -139.18330958 247.11626294 -139 244 C-136 246 -136 246 -135 249 C-133.96875 248.835 -132.9375 248.67 -131.875 248.5 C-128.51755674 248.06678152 -125.37663843 247.91764297 -122 248 C-121.34 246.68 -120.68 245.36 -120 244 C-118.875 248.75 -118.875 248.75 -120 251 C-122.06601425 251.64198183 -124.15392998 252.21423322 -126.25 252.75 C-132.09339757 254.44336658 -134.83093079 255.83559092 -138 261 C-137.35744263 260.78724426 -136.71488525 260.57448853 -136.05285645 260.35528564 C-126.25229117 257.48241644 -116.82824233 257.59829037 -106.71875 257.671875 C-104.85567377 257.67494274 -102.99259521 257.67681113 -101.1295166 257.67755127 C-97.23631913 257.68213172 -93.34333108 257.69645912 -89.45019531 257.71875 C-84.52006758 257.74687129 -79.59010481 257.75794971 -74.65990448 257.7624321 C-69.88783279 257.76765425 -65.11580005 257.78213697 -60.34375 257.796875 C-59.46295273 257.79875572 -58.58215546 257.80063644 -57.67466736 257.80257416 C-48.2026491 257.82868385 -38.75279817 257.9901316 -29.29101562 258.45019531 C-28.49093834 258.48864941 -27.69086105 258.5271035 -26.866539 258.56672287 C-21.54842487 258.85003666 -16.28850281 259.37169483 -11 260 C-11.07087043 259.41047672 -11.14174086 258.82095345 -11.21475887 258.21356583 C-12.37201942 246.8850883 -12.13216933 235.52107318 -12.11352539 224.14746094 C-12.11324301 221.73192852 -12.11340225 219.31639602 -12.1139679 216.90086365 C-12.11422425 211.04705787 -12.10990902 205.19326861 -12.10353024 199.3394666 C-12.09635153 192.52191575 -12.09488245 185.70436717 -12.09374207 178.88681307 C-12.09155894 166.73101644 -12.08491897 154.57522656 -12.07543945 142.41943359 C-12.06624616 130.61832716 -12.05917472 118.81722257 -12.05493164 107.01611328 C-12.05466892 106.28745205 -12.05440619 105.55879081 -12.05413551 104.80804893 C-12.05283038 101.1521991 -12.05156669 97.49634926 -12.05032361 93.8404994 C-12.03997403 63.5603281 -12.02230104 33.28016499 -12 3 C-11.030625 2.690625 -10.06125 2.38125 -9.0625 2.0625 C-3.11764706 0 -3.11764706 0 0 0 Z " transform="translate(264,0)" style="fill: #625B1A;"/><path d="M0 0 C17.16 0 34.32 0 52 0 C52 24.42 52 48.84 52 74 C34.84 74 17.68 74 0 74 C0 49.58 0 25.16 0 0 Z " transform="translate(107,104)" style="fill: #0A0F06;"/><path d="M0 0 C0 84.48 0 168.96 0 256 C-2.97 253.525 -2.97 253.525 -6 251 C-6 250.34 -6 249.68 -6 249 C-6.9590625 248.8453125 -6.9590625 248.8453125 -7.9375 248.6875 C-8.9584375 248.3471875 -8.9584375 248.3471875 -10 248 C-10.92358363 245.22924911 -11.13414637 243.5426919 -11.15821838 240.68106079 C-11.16800752 239.79450648 -11.17779665 238.90795218 -11.18788242 237.99453259 C-11.19363757 237.02003312 -11.19939272 236.04553366 -11.20532227 235.04150391 C-11.21521903 234.00750867 -11.2251158 232.97351343 -11.23531246 231.90818501 C-11.26721081 228.43100123 -11.29190735 224.95380576 -11.31640625 221.4765625 C-11.33712945 218.99572999 -11.35817359 216.51490014 -11.3795166 214.03407288 C-11.42993957 207.99930357 -11.4751885 201.96451546 -11.51765215 195.92968649 C-11.55212776 191.03665596 -11.58881146 186.14364625 -11.62667847 181.25064087 C-12.08392415 121.83361766 -12.11104578 62.41855667 -12 3 C-10.5459375 2.5359375 -10.5459375 2.5359375 -9.0625 2.0625 C-3.11764706 0 -3.11764706 0 0 0 Z " transform="translate(264,0)" style="fill: #FBFAFC;"/><path d="M0 0 C0.99 0.495 0.99 0.495 2 1 C2 2.98 2 4.96 2 7 C2.99 6.67 3.98 6.34 5 6 C5.33 6.99 5.66 7.98 6 9 C8.50447516 10.21869929 8.50447516 10.21869929 11 11 C11 11.66 11 12.32 11 13 C11.66 13 12.32 13 13 13 C13.33 12.01 13.66 11.02 14 10 C14.66 10.33 15.32 10.66 16 11 C16 11.66 16 12.32 16 13 C16.99 13.0825 17.98 13.165 19 13.25 C22.81608913 13.77317351 25.64171498 15.26779948 29 17.078125 C31.99007346 18.45636198 34.73467667 18.72788972 38 19 C38 19.66 38 20.32 38 21 C39.69769531 21.29003906 39.69769531 21.29003906 41.4296875 21.5859375 C42.91153202 21.84854286 44.39329892 22.11158648 45.875 22.375 C46.99455078 22.56449219 46.99455078 22.56449219 48.13671875 22.7578125 C53.7734375 23.7734375 53.7734375 23.7734375 56 26 C58.02213278 26.61056087 60.06827978 27.14363995 62.125 27.625 C63.22070312 27.88539063 64.31640625 28.14578125 65.4453125 28.4140625 C66.70988281 28.70410156 66.70988281 28.70410156 68 29 C68 29.66 68 30.32 68 31 C68.61488281 31.20496094 69.22976562 31.40992188 69.86328125 31.62109375 C73.2421875 32.74739583 76.62109375 33.87369792 80 35 C80 35.66 80 36.32 80 37 C80.66 37 81.32 37 82 37 C82 37.66 82 38.32 82 39 C83.485 39.495 83.485 39.495 85 40 C85 40.33 85 40.66 85 41 C83.65149208 41.01213028 83.65149208 41.01213028 82.27574158 41.02450562 C73.78658561 41.10257807 65.29758551 41.18990676 56.80863094 41.28752708 C52.44479972 41.33738612 48.08099148 41.38371678 43.71704102 41.421875 C39.50238075 41.45885948 35.28791784 41.50525451 31.0734272 41.55806351 C29.46879108 41.57653772 27.86411277 41.59167119 26.25941277 41.60334396 C24.00468793 41.6203265 21.75040822 41.6493888 19.49584961 41.68115234 C18.21455673 41.69447601 16.93326385 41.70779968 15.61314392 41.7215271 C9.95021529 42.15798139 5.25648642 43.89740543 0 46 C0 30.82 0 15.64 0 0 Z " transform="translate(3,211)" style="fill: #87905A;"/><path d="M0 0 C0.33 0 0.66 0 1 0 C1 1.65 1 3.3 1 5 C1.99 5 2.98 5 4 5 C4 4.34 4 3.68 4 3 C3.34 2.67 2.68 2.34 2 2 C3.65 2 5.3 2 7 2 C7.19259228 9.11521485 7.10595386 15.15564996 5 22 C4.72563916 25.71982251 4.58464093 29.39435824 5.5234375 33.0234375 C6 35 6 35 5.8125 38.9375 C5.74234366 42.34964921 5.9747268 42.9620902 8 46 C8.66 46.66 9.32 47.32 10 48 C8.02 48.495 8.02 48.495 6 49 C6 49.66 6 50.32 6 51 C6.97582031 51 7.95164062 51 8.95703125 51 C13.63802083 51 18.31901042 51 23 51 C23.515625 52.134375 24.03125 53.26875 24.5625 54.4375 C28.12190995 61.5563199 33.2349712 67.55525058 39 73 C39.45375 73.556875 39.9075 74.11375 40.375 74.6875 C42.93139356 76.75227941 45.85484729 77.22854745 49 78 C49 78.66 49 79.32 49 80 C50.03125 79.95875 51.0625 79.9175 52.125 79.875 C55.91485833 79.99725349 58.45130336 80.79193306 62 82 C65.25044709 82.16798469 65.25044709 82.16798469 68 82 C68 82.99 68 83.98 68 85 C69.32 85 70.64 85 72 85 C72 85.66 72 86.32 72 87 C73.98 87.495 73.98 87.495 76 88 C76 88.33 76 88.66 76 89 C74.35 89 72.7 89 71 89 C68.91812089 92.91883127 69.18321795 95.31697787 69.90625 99.59765625 C70.0988297 104.53251102 68.38508953 109.30478124 67 114 C63.05132128 114.86870932 60.64627315 115.24076843 56.8125 113.8125 C54.11867614 112.07648018 52.14406621 110.36586617 50 108 C49.4225 107.4225 48.845 106.845 48.25 106.25 C47.8375 105.8375 47.425 105.425 47 105 C46.34 106.32 45.68 107.64 45 109 C44.67 109 44.34 109 44 109 C43.95101562 108.09636719 43.90203125 107.19273437 43.8515625 106.26171875 C43.77679688 105.08222656 43.70203125 103.90273437 43.625 102.6875 C43.55539063 101.51574219 43.48578125 100.34398437 43.4140625 99.13671875 C43.21386253 95.84300113 43.21386253 95.84300113 41 93 C41 92.01 41 91.02 41 90 C40.34 90 39.68 90 39 90 C39 88.68 39 87.36 39 86 C38.01 85.67 37.02 85.34 36 85 C36 83.68 36 82.36 36 81 C34.9275 81.185625 33.855 81.37125 32.75 81.5625 C27.71733967 82.14964371 27.71733967 82.14964371 25 81 C24 79 24 79 24.125 75.25 C24.19193177 71.16716219 23.14533872 68.5183555 21 65 C20.505 64.505 20.505 64.505 20 64 C19.85884839 61.32941149 19.95752893 58.67567762 20 56 C19.34 56 18.68 56 18 56 C17.67 56.99 17.34 57.98 17 59 C15.66666667 57.66666667 14.33333333 56.33333333 13 55 C13.33 54.34 13.66 53.68 14 53 C9.545 53.495 9.545 53.495 5 54 C4.67 52.68 4.34 51.36 4 50 C3.01 50 2.02 50 1 50 C1 52.64 1 55.28 1 58 C0.34 57.01 -0.32 56.02 -1 55 C-1.99 55.495 -1.99 55.495 -3 56 C-3.98811388 49.4282585 -4.15060292 43.0146913 -4.125 36.375 C-4.12886719 35.364375 -4.13273437 34.35375 -4.13671875 33.3125 C-4.13031355 28.43174116 -4.0312252 23.7960156 -3 19 C-2.34 19 -1.68 19 -1 19 C-1.01160156 17.79601562 -1.02320313 16.59203125 -1.03515625 15.3515625 C-1.04453434 13.77604321 -1.05363452 12.20052225 -1.0625 10.625 C-1.07087891 9.8309375 -1.07925781 9.036875 -1.08789062 8.21875 C-1.11328125 2.2265625 -1.11328125 2.2265625 0 0 Z " transform="translate(36,135)" style="fill: #1A4509;"/><path d="M0 0 C0.33 0 0.66 0 1 0 C1.33 10.56 1.66 21.12 2 32 C3.98 31.01 5.96 30.02 8 29 C12.0489738 27.87418877 15.98699208 27.84604388 20.17700195 27.79467773 C20.87998917 27.78477814 21.58297638 27.77487854 22.30726624 27.76467896 C24.61757099 27.7332367 26.92789626 27.70837532 29.23828125 27.68359375 C30.84539812 27.66300928 32.45250976 27.64201242 34.05961609 27.62062073 C38.27963002 27.56555421 42.49969156 27.51607724 46.7197876 27.46777344 C51.03003146 27.41744549 55.3402066 27.3618185 59.65039062 27.30664062 C68.10020223 27.19924779 76.5500715 27.09776129 85 27 C84.01 26.01 84.01 26.01 83 25 C87.95 25.99 87.95 25.99 93 27 C92.505 28.485 92.505 28.485 92 30 C92.66386719 29.94199219 93.32773438 29.88398438 94.01171875 29.82421875 C101.23705722 29.45504087 101.23705722 29.45504087 105.0625 32.1875 C107 35 107 35 108 40 C71.7 40 35.4 40 -2 40 C-2 38.35 -2 36.7 -2 35 C-1.34 35 -0.68 35 0 35 C0 23.45 0 11.9 0 0 Z " transform="translate(2,224)" style="fill: #2A748B;"/><path d="M0 0 C116.82 0.495 116.82 0.495 236 1 C236 43.24 236 85.48 236 129 C233.46599847 125.1989977 233.80652477 122.28640205 233.91015625 117.89453125 C233.93156997 116.07506561 233.94971928 114.25555982 233.96533203 112.43603516 C233.97877655 110.9099765 233.97877655 110.9099765 233.99249268 109.35308838 C234.00530242 103.63171629 233.89308859 97.91235338 233.78568649 92.19222641 C233.74589776 90.06373416 233.70826993 87.93521402 233.67129517 85.80667114 C233.56900365 79.93784645 233.46440128 74.06907636 233.35180664 68.20043945 C233.28216346 64.5594339 233.21799178 60.91836605 233.15730476 57.2772007 C233.13342659 55.90694291 233.1075262 54.53671867 233.07946587 53.16654015 C233.04057226 51.25915564 233.00927956 49.35162079 232.97827148 47.4440918 C232.94829323 45.82581734 232.94829323 45.82581734 232.91770935 44.17485046 C233.0072749 40.71932748 233.45096544 37.41025077 234 34 C233.38125 33.95875 232.7625 33.9175 232.125 33.875 C230 33 230 33 228.625 30.375 C227.87596718 26.33022279 228.62090751 23.83081247 230 20 C230.66 20 231.32 20 232 20 C232 15.71 232 11.42 232 7 C230.35 6.67 228.7 6.34 227 6 C227 5.67 227 5.34 227 5 C152.09 5 77.18 5 0 5 C0 3.35 0 1.7 0 0 Z " transform="translate(7,14)" style="fill: #270E15;"/><path d="M0 0 C82.83 0 165.66 0 251 0 C251 1.32 251 2.64 251 4 C168.17 4 85.34 4 0 4 C0 2.68 0 1.36 0 0 Z " transform="translate(0,0)" style="fill: #D7A996;"/><path d="M0 0 C0.33 0 0.66 0 1 0 C1.33 42.24 1.66 84.48 2 128 C3.32 128.33 4.64 128.66 6 129 C7.703125 130.34765625 7.703125 130.34765625 9.25 132.0625 C10.03117187 132.88427734 10.03117187 132.88427734 10.828125 133.72265625 C12 136 12 136 12 144 C-34.2 144 -80.4 144 -128 144 C-117.58452512 137.05635008 -106.83733631 137.4511029 -94.81640625 137.57421875 C-92.95190279 137.57915704 -91.08739432 137.58244652 -89.22288513 137.58418274 C-85.32363897 137.59179297 -81.42476373 137.61224476 -77.52563477 137.64331055 C-72.58762789 137.68263345 -67.64986217 137.70088834 -62.71171665 137.71061993 C-57.93408217 137.72072408 -53.15650243 137.74047887 -48.37890625 137.76171875 C-47.49659395 137.7651145 -46.61428165 137.76851025 -45.70523262 137.7720089 C-36.2229405 137.81595919 -26.76085084 137.99256982 -17.28881836 138.45239258 C-16.48887483 138.49071292 -15.68893129 138.52903326 -14.86474705 138.56851482 C-9.54705445 138.85060343 -4.28801298 139.37158976 1 140 C0.92912957 139.28587322 0.85825914 138.57174644 0.78524113 137.83597946 C0.07806432 130.16672502 -0.1375155 122.58630256 -0.11352539 114.88769531 C-0.11367142 113.63748596 -0.11381744 112.38727661 -0.1139679 111.09918213 C-0.11339562 107.71154637 -0.10842287 104.32397356 -0.10139394 100.93634892 C-0.09509057 97.38096876 -0.09455113 93.82558752 -0.09336853 90.27020264 C-0.09027562 83.55572695 -0.08209007 76.84126779 -0.07201904 70.12679935 C-0.06079411 62.47491563 -0.05533146 54.82303107 -0.05032361 47.17114115 C-0.03990548 31.44741791 -0.02234604 15.72371109 0 0 Z " transform="translate(252,120)" style="fill: #3A82B6;"/><path d="M0 0 C69.3 0 138.6 0 210 0 C209.67 0.66 209.34 1.32 209 2 C210.98 2.495 210.98 2.495 213 3 C212.67 3.66 212.34 4.32 212 5 C206.98537403 5.93493027 203.02721527 6.13112344 198 5 C198 4.34 198 3.68 198 3 C197.18586639 3.32753769 196.37173279 3.65507538 195.53292847 3.99253845 C191.43131659 5.16216764 187.69123573 5.21744948 183.47314453 5.11938477 C182.63609482 5.10831696 181.7990451 5.09724915 180.93663025 5.08584595 C179.12130895 5.06043906 177.30605006 5.03021264 175.49087906 4.99569893 C172.58325288 4.9404648 169.67567121 4.89791967 166.76779175 4.85838318 C161.60140256 4.78605465 156.43526318 4.70258172 151.269104 4.61547852 C142.1196882 4.4613098 132.97014863 4.31826372 123.8203125 4.19140625 C122.82748009 4.17733923 121.83464767 4.16327221 120.81172943 4.14877892 C107.22706091 3.96507474 93.71015531 4.10796501 80.13565063 4.64294434 C66.24673779 5.16757096 52.39093478 4.88138281 38.5 4.5625 C35.89975497 4.5090124 33.29949437 4.45627632 30.69921875 4.40429688 C24.46594114 4.27811727 18.23291431 4.1429572 12 4 C12 3.01 12 2.02 12 1 C8.04 1 4.08 1 0 1 C0 0.67 0 0.34 0 0 Z " transform="translate(26,18)" style="fill: #211807;"/><path d="M0 0 C2.1875 0.3125 2.1875 0.3125 4 1 C4.12375 1.639375 4.2475 2.27875 4.375 2.9375 C4.684375 3.9584375 4.684375 3.9584375 5 5 C5.66 5.33 6.32 5.66 7 6 C7 7.32 7 8.64 7 10 C7.66 10 8.32 10 9 10 C12.61752739 15.66221678 12.69040043 21.40232633 13 28 C13.66 27.01 14.32 26.02 15 25 C15.99 25.33 16.98 25.66 18 26 C18.144375 26.639375 18.28875 27.27875 18.4375 27.9375 C18.79151627 30.14184359 18.79151627 30.14184359 20.75 31.125 C21.86375 31.558125 21.86375 31.558125 23 32 C23.763125 32.37125 24.52625 32.7425 25.3125 33.125 C28.63160934 34.20564025 31.53195511 34.13600176 35 34 C35.33 31.03 35.66 28.06 36 25 C36.66 25.33 37.32 25.66 38 26 C38.59355614 28.64860427 38.74209269 31.29197322 39 34 C40.98 34.66 42.96 35.32 45 36 C45 37.32 45 38.64 45 40 C47.97 40.495 47.97 40.495 51 41 C51 41.99 51 42.98 51 44 C54.27773504 43.24849977 54.27773504 43.24849977 56 40 C56.99 40 57.98 40 59 40 C58.67 39.113125 58.34 38.22625 58 37.3125 C57.08777857 34.29076653 56.81669042 32.11626294 57 29 C60 31 60 31 61 34 C62.546875 33.7525 62.546875 33.7525 64.125 33.5 C67.48244326 33.06678152 70.62336157 32.91764297 74 33 C74.66 31.68 75.32 30.36 76 29 C77.125 33.75 77.125 33.75 76 36 C73.93398575 36.64198183 71.84607002 37.21423322 69.75 37.75 C63.90660243 39.44336658 61.16906921 40.83559092 58 46 C59.32 46.33 60.64 46.66 62 47 C57.37630977 48.80679587 53.57471347 49.21839082 48.625 49.125 C47.37976563 49.10695313 46.13453125 49.08890625 44.8515625 49.0703125 C43.91054687 49.04710937 42.96953125 49.02390625 42 49 C41.71125 48.2575 41.4225 47.515 41.125 46.75 C40.75375 45.8425 40.3825 44.935 40 44 C39.75507812 43.25234375 39.51015625 42.5046875 39.2578125 41.734375 C38.0666935 39.68611297 38.0666935 39.68611297 35.1796875 39.390625 C34.08914062 39.34421875 32.99859375 39.2978125 31.875 39.25 C30.23144531 39.16492188 30.23144531 39.16492188 28.5546875 39.078125 C27.71164063 39.05234375 26.86859375 39.0265625 26 39 C26 38.34 26 37.68 26 37 C25.37351562 36.79503906 24.74703125 36.59007812 24.1015625 36.37890625 C23.28429687 36.10949219 22.46703125 35.84007812 21.625 35.5625 C20.81289062 35.29566406 20.00078125 35.02882812 19.1640625 34.75390625 C17 34 17 34 15 33 C15 32.34 15 31.68 15 31 C14.2575 30.87625 13.515 30.7525 12.75 30.625 C7.95348837 29.53488372 7.95348837 29.53488372 6 28 C5.25 24.375 5.25 24.375 5 21 C4.67 21 4.34 21 4 21 C3.34 15.72 2.68 10.44 2 5 C-0.475 4.01 -0.475 4.01 -3 3 C-1.75 1.4375 -1.75 1.4375 0 0 Z " transform="translate(68,215)" style="fill: #486A34;"/><path d="M0 0 C1.18851562 0.00902344 2.37703125 0.01804688 3.6015625 0.02734375 C4.51679688 0.03894531 5.43203125 0.05054688 6.375 0.0625 C5.715 1.3825 5.055 2.7025 4.375 4.0625 C7.79156024 4.22927282 7.79156024 4.22927282 11.375 4.0625 C12.035 3.4025 12.695 2.7425 13.375 2.0625 C18.67943328 0.91487418 23.37704867 1.12557595 28.6875 1.8125 C29.43225586 1.90466797 30.17701172 1.99683594 30.94433594 2.09179688 C38.44974409 3.08990852 45.42137392 5.04926203 52.375 8.0625 C49.56313667 8.87871063 47.24844934 9.14310606 44.33200073 8.9473114 C43.15719996 8.87598228 43.15719996 8.87598228 41.95866585 8.80321217 C41.11749655 8.74786651 40.27632725 8.69252085 39.40966797 8.63549805 C28.87320001 8.02774951 18.37196224 7.89886741 7.8203125 7.89453125 C5.93512956 7.89130565 4.04994686 7.88794068 2.1647644 7.88444519 C-1.73928408 7.8785289 -5.64331065 7.87659809 -9.54736328 7.87719727 C-14.54144356 7.87729998 -19.53538515 7.86350291 -24.5294323 7.84642506 C-28.40191292 7.83531404 -32.27435946 7.83327757 -36.1468544 7.83380699 C-37.98959976 7.83263113 -39.83234612 7.82823154 -41.67507553 7.82047462 C-44.23905153 7.81066668 -46.80271814 7.81355286 -49.36669922 7.81958008 C-50.49345566 7.81115082 -50.49345566 7.81115082 -51.64297485 7.80255127 C-56.04065004 7.82879166 -59.51532553 8.54869722 -63.625 10.0625 C-67 10.1875 -67 10.1875 -69.625 10.0625 C-68.32400458 7.16027945 -67.08075095 5.10036128 -64.625 3.0625 C-57.00313676 0.60639194 -48.85365352 0.81146204 -40.9375 0.9375 C-39.84244141 0.94652344 -38.74738281 0.95554688 -37.61914062 0.96484375 C-34.95418646 0.98811846 -32.28971866 1.02080865 -29.625 1.0625 C-29.625 1.7225 -29.625 2.3825 -29.625 3.0625 C-28.50480469 3.0625 -27.38460937 3.0625 -26.23046875 3.0625 C-20.36197917 3.0625 -14.49348958 3.0625 -8.625 3.0625 C-8.625 2.4025 -8.625 1.7425 -8.625 1.0625 C-5.74084117 -0.37957941 -3.20778472 -0.03144887 0 0 Z " transform="translate(195.625,250.9375)" style="fill: #013041;"/><path d="M0 0 C0.33 0 0.66 0 1 0 C1 1.65 1 3.3 1 5 C1.99 5 2.98 5 4 5 C4 4.34 4 3.68 4 3 C3.34 2.67 2.68 2.34 2 2 C3.65 2 5.3 2 7 2 C7.19259228 9.11521485 7.10595386 15.15564996 5 22 C4.72563916 25.71982251 4.58464093 29.39435824 5.5234375 33.0234375 C6 35 6 35 5.8125 38.9375 C5.74234366 42.34964921 5.9747268 42.9620902 8 46 C8.66 46.66 9.32 47.32 10 48 C8.02 48.495 8.02 48.495 6 49 C6 49.66 6 50.32 6 51 C6.98742188 50.96519531 7.97484375 50.93039063 8.9921875 50.89453125 C10.27351563 50.86746094 11.55484375 50.84039062 12.875 50.8125 C14.78925781 50.76029297 14.78925781 50.76029297 16.7421875 50.70703125 C18.35480469 50.85205078 18.35480469 50.85205078 20 51 C21.94566808 53.91850212 22.5152457 55.57622848 23.1875 58.9375 C23.36667969 59.79214844 23.54585937 60.64679688 23.73046875 61.52734375 C24.00123705 64.01134859 23.77059444 65.64449502 23 68 C21.09598862 66.09598862 20.06479561 64.66574314 19.80078125 61.953125 C19.8113422 59.96766727 19.90084957 57.9830086 20 56 C19.34 56 18.68 56 18 56 C17.67 56.99 17.34 57.98 17 59 C15.66666667 57.66666667 14.33333333 56.33333333 13 55 C13.33 54.34 13.66 53.68 14 53 C9.545 53.495 9.545 53.495 5 54 C4.67 52.68 4.34 51.36 4 50 C3.01 50 2.02 50 1 50 C1 52.64 1 55.28 1 58 C0.34 57.01 -0.32 56.02 -1 55 C-1.99 55.495 -1.99 55.495 -3 56 C-3.98811388 49.4282585 -4.15060292 43.0146913 -4.125 36.375 C-4.12886719 35.364375 -4.13273437 34.35375 -4.13671875 33.3125 C-4.13031355 28.43174116 -4.0312252 23.7960156 -3 19 C-2.34 19 -1.68 19 -1 19 C-1.01160156 17.79601562 -1.02320313 16.59203125 -1.03515625 15.3515625 C-1.04453434 13.77604321 -1.05363452 12.20052225 -1.0625 10.625 C-1.07087891 9.8309375 -1.07925781 9.036875 -1.08789062 8.21875 C-1.11328125 2.2265625 -1.11328125 2.2265625 0 0 Z " transform="translate(36,135)" style="fill: #3C2803;"/><path d="M0 0 C116.325 0.495 116.325 0.495 235 1 C235 1.66 235 2.32 235 3 C208.22558434 3.02342622 181.45117023 3.04102674 154.67674637 3.05181217 C142.24315293 3.05695455 129.80956589 3.06395776 117.37597656 3.07543945 C106.53085919 3.08544946 95.68574644 3.09186838 84.84062457 3.09408849 C79.10552824 3.09538493 73.37044515 3.09840252 67.63535309 3.10573006 C62.22144849 3.11259024 56.80756241 3.11459693 51.39365387 3.11310768 C49.42183328 3.11337957 47.45001198 3.11532473 45.47819519 3.11920547 C32.62004409 3.14323957 19.83609246 2.76068738 7 2 C7 2.99 7 3.98 7 5 C4.69 5 2.38 5 0 5 C0 3.35 0 1.7 0 0 Z " transform="translate(7,14)" style="fill: #3A383F;"/><path d="M0 0 C0.33 0 0.66 0 1 0 C1.33 42.24 1.66 84.48 2 128 C3.32 128.33 4.64 128.66 6 129 C7.703125 130.34765625 7.703125 130.34765625 9.25 132.0625 C10.03117187 132.88427734 10.03117187 132.88427734 10.828125 133.72265625 C12 136 12 136 12 144 C-3.51 144 -19.02 144 -35 144 C-35 142.68 -35 141.36 -35 140 C-23.12 140 -11.24 140 1 140 C0.505 134.06 0.505 134.06 0 128 C-0.07434269 125.90012346 -0.12233079 123.7987619 -0.12025452 121.6975708 C-0.12162918 120.60406311 -0.12300385 119.51055542 -0.12442017 118.38391113 C-0.11902725 116.6532843 -0.11902725 116.6532843 -0.11352539 114.88769531 C-0.11367142 113.63748596 -0.11381744 112.38727661 -0.1139679 111.09918213 C-0.11339562 107.71154637 -0.10842287 104.32397356 -0.10139394 100.93634892 C-0.09509057 97.38096876 -0.09455113 93.82558752 -0.09336853 90.27020264 C-0.09027562 83.55572695 -0.08209007 76.84126779 -0.07201904 70.12679935 C-0.06079411 62.47491563 -0.05533146 54.82303107 -0.05032361 47.17114115 C-0.03990548 31.44741791 -0.02234604 15.72371109 0 0 Z " transform="translate(252,120)" style="fill: #91A2AD;"/><path d="M0 0 C0.33 0 0.66 0 1 0 C1.78052377 6.18207232 2.13749927 12.18333292 2.09765625 18.41015625 C2.0962413 19.26306747 2.09482635 20.1159787 2.09336853 20.99473572 C2.08782939 23.68402816 2.0752888 26.37323328 2.0625 29.0625 C2.05747712 30.90038941 2.0529156 32.73828015 2.04882812 34.57617188 C2.03788 39.05081422 2.02065839 43.52539238 2 48 C0.57757595 48.01190402 -0.84487737 48.02033944 -2.26733398 48.02734375 C-3.05945786 48.03241943 -3.85158173 48.03749512 -4.66770935 48.04272461 C-7.85691886 47.98430233 -10.92009734 47.52924676 -14.0625 47 C-15.75052734 46.7215625 -15.75052734 46.7215625 -17.47265625 46.4375 C-18.30667969 46.293125 -19.14070312 46.14875 -20 46 C-20 45.34 -20 44.68 -20 44 C-19.23945313 43.75507813 -18.47890625 43.51015625 -17.6953125 43.2578125 C-12.24443043 40.71406753 -9.43785159 34.45236648 -7.1875 29.0625 C-6.12735018 26.00390684 -5.78647776 23.1608321 -5.5625 19.9375 C-5.31641144 16.50796791 -4.84641332 14.28028834 -3 11.375 C-0.59569298 7.31773191 -0.32613021 4.64735554 0 0 Z " transform="translate(240,207)" style="fill: #343908;"/><path d="M0 0 C1.95216435 1.95216435 2.84826645 3.53199953 4 6 C4.63808594 5.91621094 5.27617187 5.83242187 5.93359375 5.74609375 C6.75988281 5.64425781 7.58617187 5.54242188 8.4375 5.4375 C9.26121094 5.33308594 10.08492187 5.22867188 10.93359375 5.12109375 C11.61550781 5.08113281 12.29742187 5.04117188 13 5 C13.33 5.33 13.66 5.66 14 6 C18.42143895 6.52551814 22.86755336 6.70355544 27.3125 6.9375 C28.56224609 7.03095703 29.81199219 7.12441406 31.09960938 7.22070312 C34.49715082 7.39030664 37.6332334 7.49765 41 7 C43.18993825 4.09792387 43.18993825 4.09792387 45 1 C48.72667642 0.06142676 52.42263037 0.11528586 56.25 0.125 C57.28125 0.104375 58.3125 0.08375 59.375 0.0625 C61.91747285 0.01541717 64.45718042 -0.00444327 67 0 C67 0.66 67 1.32 67 2 C67.9075 1.938125 68.815 1.87625 69.75 1.8125 C73.46647761 2.02691217 74.17033533 2.77056723 77 5 C79.33183607 5.67188497 81.66501142 6.33915417 84 7 C84.495 7.99 84.495 7.99 85 9 C83.65149208 9.01213028 83.65149208 9.01213028 82.27574158 9.02450562 C73.78658561 9.10257807 65.29758551 9.18990676 56.80863094 9.28752708 C52.44479972 9.33738612 48.08099148 9.38371678 43.71704102 9.421875 C39.50238075 9.45885948 35.28791784 9.50525451 31.0734272 9.55806351 C29.46879108 9.57653772 27.86411277 9.59167119 26.25941277 9.60334396 C24.00468793 9.6203265 21.75040822 9.6493888 19.49584961 9.68115234 C18.21455673 9.69447601 16.93326385 9.70779968 15.61314392 9.7215271 C9.95021529 10.15798139 5.25648642 11.89740543 0 14 C0 9.38 0 4.76 0 0 Z " transform="translate(3,243)" style="fill: #918777;"/><path d="M0 0 C0.33 0 0.66 0 1 0 C1.33 10.56 1.66 21.12 2 32 C3.98 31.01 5.96 30.02 8 29 C12.0489738 27.87418877 15.98699208 27.84604388 20.17700195 27.79467773 C20.87998917 27.78477814 21.58297638 27.77487854 22.30726624 27.76467896 C24.61757099 27.7332367 26.92789626 27.70837532 29.23828125 27.68359375 C30.84539812 27.66300928 32.45250976 27.64201242 34.05961609 27.62062073 C38.27963002 27.56555421 42.49969156 27.51607724 46.7197876 27.46777344 C51.03003146 27.41744549 55.3402066 27.3618185 59.65039062 27.30664062 C68.10020223 27.19924779 76.5500715 27.09776129 85 27 C84.01 26.01 84.01 26.01 83 25 C87.95 25.99 87.95 25.99 93 27 C92.505 28.485 92.505 28.485 92 30 C93.04800781 29.96519531 93.04800781 29.96519531 94.1171875 29.9296875 C95.48230469 29.90261719 95.48230469 29.90261719 96.875 29.875 C98.23238281 29.84019531 98.23238281 29.84019531 99.6171875 29.8046875 C102 30 102 30 104 32 C100.01644868 32.02493556 96.03292833 32.04297028 92.04931641 32.05493164 C90.03676759 32.06236421 88.02424051 32.07507829 86.01171875 32.08789062 C84.08779297 32.09272461 84.08779297 32.09272461 82.125 32.09765625 C80.36542969 32.10551147 80.36542969 32.10551147 78.5703125 32.11352539 C75 32 75 32 71.34448242 31.50439453 C65.70278438 30.74390119 60.04675335 30.83754979 54.36328125 30.83203125 C53.16567673 30.82870285 51.9680722 30.82537445 50.73417664 30.82194519 C48.21365745 30.81690134 45.69313165 30.81453608 43.17260742 30.81469727 C39.31483074 30.81250133 35.45733591 30.79429263 31.59960938 30.77539062 C29.14583431 30.77245809 26.69205789 30.77047236 24.23828125 30.76953125 C23.08612625 30.76234573 21.93397125 30.75516022 20.74690247 30.74775696 C19.6719603 30.75083359 18.59701813 30.75391022 17.48950195 30.75708008 C16.54766556 30.75565506 15.60582916 30.75423004 14.63545227 30.75276184 C11.71166662 31.02704925 9.59640637 31.62854635 7 33 C6.67 33.99 6.34 34.98 6 36 C3.4375 37.1875 3.4375 37.1875 1 38 C0 37 0 37 -0.11352539 33.48999023 C-0.11336626 31.92951578 -0.10767142 30.36903607 -0.09765625 28.80859375 C-0.0962413 27.98875504 -0.09482635 27.16891632 -0.09336853 26.32423401 C-0.08775289 23.69528618 -0.07519779 21.06642227 -0.0625 18.4375 C-0.05748701 16.65950643 -0.05292376 14.88151154 -0.04882812 13.10351562 C-0.03777839 8.73564455 -0.02050331 4.36783652 0 0 Z " transform="translate(2,224)" style="fill: #436F7A;"/><path d="M0 0 C3 2 3 2 4 5 C5.546875 4.7525 5.546875 4.7525 7.125 4.5 C10.48244326 4.06678152 13.62336157 3.91764297 17 4 C17.66 2.68 18.32 1.36 19 0 C20.125 4.75 20.125 4.75 19 7 C16.93398575 7.64198183 14.84607002 8.21423322 12.75 8.75 C6.90660243 10.44336658 4.16906921 11.83559092 1 17 C2.32 17.33 3.64 17.66 5 18 C0.37630977 19.80679587 -3.42528653 20.21839082 -8.375 20.125 C-9.62023437 20.10695313 -10.86546875 20.08890625 -12.1484375 20.0703125 C-13.08945313 20.04710937 -14.03046875 20.02390625 -15 20 C-15.28875 19.2575 -15.5775 18.515 -15.875 17.75 C-16.24625 16.8425 -16.6175 15.935 -17 15 C-17.24492188 14.25234375 -17.48984375 13.5046875 -17.7421875 12.734375 C-18.9333065 10.68611297 -18.9333065 10.68611297 -21.8203125 10.390625 C-22.91085938 10.34421875 -24.00140625 10.2978125 -25.125 10.25 C-26.76855469 10.16492188 -26.76855469 10.16492188 -28.4453125 10.078125 C-29.28835937 10.05234375 -30.13140625 10.0265625 -31 10 C-31 9.34 -31 8.68 -31 8 C-26.38 7.67 -21.76 7.34 -17 7 C-17 7.66 -17 8.32 -17 9 C-15.35 9 -13.7 9 -12 9 C-12 9.66 -12 10.32 -12 11 C-9.03 11.495 -9.03 11.495 -6 12 C-6 12.99 -6 13.98 -6 15 C-2.72226496 14.24849977 -2.72226496 14.24849977 -1 11 C-0.01 11 0.98 11 2 11 C1.505 9.6696875 1.505 9.6696875 1 8.3125 C0.08777857 5.29076653 -0.18330958 3.11626294 0 0 Z " transform="translate(125,244)" style="fill: #4F5738;"/><path d="M0 0 C2.01059776 2.01059776 2.9061607 3.61479947 4.1875 6.125 C6.83992988 11.02484802 10.18596083 14.96613148 14 19 C13.01 19.33 12.02 19.66 11 20 C10.01 20.66 9.02 21.32 8 22 C8.495 22.45375 8.99 22.9075 9.5 23.375 C11 25 11 25 11 27 C11.99 27 12.98 27 14 27 C14.33 27.66 14.66 28.32 15 29 C15.99 29.33 16.98 29.66 18 30 C21.86290449 34.41474799 22.40051939 37.61733039 22.140625 43.2421875 C22.07101563 44.11230469 22.07101563 44.11230469 22 45 C20.5 43.6875 20.5 43.6875 19 42 C19 41.01 19 40.02 19 39 C18.34 39 17.68 39 17 39 C17 37.68 17 36.36 17 35 C15.515 34.505 15.515 34.505 14 34 C14 32.68 14 31.36 14 30 C12.9275 30.185625 11.855 30.37125 10.75 30.5625 C5.71733967 31.14964371 5.71733967 31.14964371 3 30 C2 28 2 28 2.0625 24.5 C2.11586911 21.21483451 1.72254088 18.32843299 1 15.125 C-0.12194707 10.03673301 -0.19877145 5.19014345 0 0 Z " transform="translate(58,186)" style="fill: #254D02;"/><path d="M0 0 C103.95 0.495 103.95 0.495 210 1 C210 1.33 210 1.66 210 2 C106.05 2.495 106.05 2.495 0 3 C0 2.01 0 1.02 0 0 Z " transform="translate(14,16)" style="fill: #2C2720;"/><path d="M0 0 C1.18851563 0.00902344 2.37703125 0.01804688 3.6015625 0.02734375 C4.51679688 0.03894531 5.43203125 0.05054688 6.375 0.0625 C5.715 1.3825 5.055 2.7025 4.375 4.0625 C7.79156024 4.22927282 7.79156024 4.22927282 11.375 4.0625 C12.035 3.4025 12.695 2.7425 13.375 2.0625 C18.67943328 0.91487418 23.37704867 1.12557595 28.6875 1.8125 C29.43225586 1.90466797 30.17701172 1.99683594 30.94433594 2.09179688 C38.44974409 3.08990852 45.42137392 5.04926203 52.375 8.0625 C49.32657135 8.97151939 46.77838364 9.12423367 43.609375 8.94140625 C42.71992188 8.89306641 41.83046875 8.84472656 40.9140625 8.79492188 C39.99367187 8.73884766 39.07328125 8.68277344 38.125 8.625 C37.18914062 8.57279297 36.25328125 8.52058594 35.2890625 8.46679688 C32.98401113 8.33743175 30.67942711 8.20247966 28.375 8.0625 C28.375 7.4025 28.375 6.7425 28.375 6.0625 C26.97592407 6.07035522 26.97592407 6.07035522 25.54858398 6.07836914 C22.06159843 6.09549302 18.5746581 6.10798993 15.08764648 6.11743164 C13.5834075 6.12243555 12.07917332 6.12924073 10.57495117 6.13793945 C8.40281991 6.15017884 6.23075341 6.15576786 4.05859375 6.16015625 C2.75462646 6.16539307 1.45065918 6.17062988 0.10717773 6.17602539 C-3.57701033 6.06395975 -6.99471466 5.65624786 -10.625 5.0625 C-10.625 4.4025 -10.625 3.7425 -10.625 3.0625 C-9.965 3.0625 -9.305 3.0625 -8.625 3.0625 C-8.625 2.4025 -8.625 1.7425 -8.625 1.0625 C-5.74084117 -0.37957941 -3.20778472 -0.03144887 0 0 Z " transform="translate(195.625,250.9375)" style="fill: #03192D;"/><path d="M0 0 C0.33 0 0.66 0 1 0 C1 1.65 1 3.3 1 5 C1.99 5 2.98 5 4 5 C4 4.34 4 3.68 4 3 C3.34 2.67 2.68 2.34 2 2 C3.65 2 5.3 2 7 2 C7.34522296 14.75407051 7.34522296 14.75407051 6 18.875 C4.87570726 22.3884148 4.85037605 25.33421323 5 29 C4.67 29 4.34 29 4 29 C3.67 32.63 3.34 36.26 3 40 C2.67 40 2.34 40 2 40 C1.67 33.4 1.34 26.8 1 20 C0.34 28.58 -0.32 37.16 -1 46 C-3 45 -3 45 -3.6171875 43.4296875 C-4.15821087 39.99584529 -4.14407913 36.59104172 -4.125 33.125 C-4.12886719 32.43019531 -4.13273437 31.73539063 -4.13671875 31.01953125 C-4.12897598 26.90812094 -3.79640249 23.0325777 -3 19 C-2.34 19 -1.68 19 -1 19 C-1.01160156 17.79601562 -1.02320313 16.59203125 -1.03515625 15.3515625 C-1.04453434 13.77604321 -1.05363452 12.20052225 -1.0625 10.625 C-1.07087891 9.8309375 -1.07925781 9.036875 -1.08789062 8.21875 C-1.11328125 2.2265625 -1.11328125 2.2265625 0 0 Z " transform="translate(36,135)" style="fill: #2C2803;"/><path d="M0 0 C28.05 0 56.1 0 85 0 C81.52746777 2.31502149 79.73863946 2.34128598 75.625 2.5625 C71.10794313 2.79670044 71.10794313 2.79670044 66.65510559 3.51402283 C63.78995204 4.03844612 61.20283223 4.08087018 58.29174805 4.02172852 C57.17096359 4.00163223 56.05017914 3.98153595 54.89543152 3.96083069 C53.6963063 3.93379562 52.49718109 3.90676056 51.26171875 3.87890625 C50.02581497 3.85529526 48.78991119 3.83168427 47.51655579 3.80735779 C44.24334258 3.7438506 40.97027266 3.67562859 37.69720459 3.60510254 C34.35224932 3.53419481 31.00717865 3.46960547 27.66210938 3.40429688 C21.10794768 3.27525518 14.5539364 3.1399946 8 3 C8 2.34 8 1.68 8 1 C5.69 1.33 3.38 1.66 1 2 C0.67 1.34 0.34 0.68 0 0 Z " transform="translate(96,216)" style="fill: #041503;"/><path d="M0 0 C0.80711929 -0.00175232 1.61423859 -0.00350464 2.44581604 -0.00531006 C5.12543875 -0.00972365 7.8049957 -0.00678763 10.48461914 -0.00341797 C12.36056023 -0.00409226 14.23650123 -0.00506334 16.11244202 -0.00631714 C20.05934474 -0.00779435 24.0062249 -0.0056429 27.953125 -0.00097656 C32.95412264 0.00465417 37.95506582 0.00148482 42.95606136 -0.00454903 C46.84200936 -0.00821144 50.72794508 -0.00698927 54.61389351 -0.00442123 C56.45343597 -0.00376404 58.29297962 -0.00453701 60.13252068 -0.00690079 C72.8128356 -0.01959307 85.42357893 0.38666179 98.08227539 1.12939453 C98.08227539 1.45939453 98.08227539 1.78939453 98.08227539 2.12939453 C96.97615906 2.139702 95.87004272 2.15000946 94.73040771 2.16062927 C84.31256806 2.25833336 73.89478854 2.36106469 63.47704697 2.46873379 C58.1210307 2.5239271 52.76500893 2.57734143 47.40893555 2.62670898 C42.24123628 2.67440541 37.0736032 2.72675025 31.90598297 2.78233528 C29.9332163 2.80273489 27.9604315 2.82145191 25.98763275 2.83846855 C23.22712139 2.86256548 20.46673473 2.89261294 17.70629883 2.92407227 C16.8884642 2.92982773 16.07062958 2.93558319 15.22801208 2.94151306 C11.05259956 2.9752406 11.05259956 2.9752406 6.95138931 3.66638279 C4.62681755 4.24221929 3.40147361 3.71730317 1.08227539 3.12939453 C-1.51146375 3.06041211 -4.07582658 3.03504701 -6.66772461 3.06689453 C-7.36510742 3.07140625 -8.06249023 3.07591797 -8.78100586 3.08056641 C-10.49328263 3.09229433 -12.20551494 3.11022801 -13.91772461 3.12939453 C-9.2384504 0.00987839 -5.43773329 -0.014446 0 0 Z " transform="translate(145.917724609375,257.87060546875)" style="fill: #1D678A;"/><path d="M0 0 C4.20513519 0.07238254 8.41040163 0.13616021 12.61566162 0.20080566 C20.77726567 0.32746666 28.93868429 0.46314617 37.10003662 0.60510254 C37.10003662 0.93510254 37.10003662 1.26510254 37.10003662 1.60510254 C26.30933542 1.73778384 15.51861005 1.86828604 4.72785187 1.99625397 C-0.28660848 2.0557838 -5.30105882 2.11597299 -10.31549072 2.17785645 C-42.18454934 2.57032927 -74.03451036 2.93690921 -105.89996338 2.10510254 C-107.87391296 2.05656814 -109.84787137 2.00839152 -111.82183838 1.96057129 C-116.51465742 1.84614662 -121.20733511 1.72709011 -125.89996338 1.60510254 C-125.89996338 1.27510254 -125.89996338 0.94510254 -125.89996338 0.60510254 C-125.21489716 0.60732315 -124.52983093 0.60954376 -123.82400513 0.61183167 C-117.21108958 0.63228046 -110.59818344 0.64729545 -103.98524284 0.65691471 C-100.58944654 0.66202696 -97.19369759 0.6694937 -93.7979126 0.68054199 C-79.61592908 0.7254384 -65.47923228 0.64500547 -51.30621338 0.07385254 C-34.19580871 -0.59487146 -17.11564966 -0.3013003 0 0 Z " transform="translate(162.89996337890625,21.3948974609375)" style="fill: #140A02;"/><path d="M0 0 C1.04340797 0.04102089 1.04340797 0.04102089 2.1078949 0.08287048 C30.45817056 1.15518902 58.81768749 1.31421492 87.18487549 1.53222656 C93.72288185 1.58327017 100.26085274 1.63851494 106.79882812 1.69335938 C119.53252134 1.79958148 132.26624522 1.90144735 145 2 C145 2.33 145 2.66 145 3 C129.96012934 3.02350948 114.92026012 3.04106684 99.88037491 3.05181217 C92.89485301 3.0569372 85.90934263 3.06390624 78.92382812 3.07543945 C72.16755822 3.08658872 65.41130021 3.09230423 58.65502167 3.09487724 C56.09258589 3.09670813 53.53015067 3.10028269 50.96772003 3.10573006 C36.27707884 3.13568461 21.66355117 2.92893032 7 2 C7 2.99 7 3.98 7 5 C4.69 5 2.38 5 0 5 C0 3.35 0 1.7 0 0 Z " transform="translate(7,14)" style="fill: #373632;"/><path d="M0 0 C0.99 0.495 0.99 0.495 2 1 C2 2.98 2 4.96 2 7 C2.99 6.67 3.98 6.34 5 6 C5.33 6.99 5.66 7.98 6 9 C8.50447516 10.21869929 8.50447516 10.21869929 11 11 C11 11.66 11 12.32 11 13 C11.66 13 12.32 13 13 13 C13.33 12.01 13.66 11.02 14 10 C14.66 10.33 15.32 10.66 16 11 C16 11.66 16 12.32 16 13 C17.0725 13.103125 18.145 13.20625 19.25 13.3125 C22.85820872 13.97400493 24.36395023 14.57483421 27 17 C24.36 17 21.72 17 19 17 C19 18.32 19 19.64 19 21 C13.10877231 19.8408464 7.40719014 18.65616358 2 16 C-0.83248333 11.16117432 -0.19424174 5.46035108 0 0 Z " transform="translate(3,211)" style="fill: #6D9D5A;"/><path d="M0 0 C1.60210491 2.83548813 2.24953463 4.86123181 2.24291992 8.11230469 C2.24595627 8.91619629 2.24899261 9.72008789 2.25212097 10.54833984 C2.24497574 11.41410645 2.23783051 12.27987305 2.23046875 13.171875 C2.23037308 14.07921387 2.2302774 14.98655273 2.23017883 15.92138672 C2.22646117 18.86439312 2.20756141 21.80706324 2.1875 24.75 C2.18066213 26.75683485 2.17415189 28.76367084 2.16796875 30.77050781 C2.10707249 44.53138223 1.81160535 58.26068088 1 72 C1.66 72.33 2.32 72.66 3 73 C2.67 75.31 2.34 77.62 2 80 C0.515 80.495 0.515 80.495 -1 81 C-1.02337705 72.80138761 -1.04104232 64.60278961 -1.05181217 56.40415192 C-1.05698636 52.59543158 -1.06398206 48.78673437 -1.07543945 44.97802734 C-1.08646591 41.2886381 -1.09231773 37.59927081 -1.09487724 33.90986633 C-1.0966965 32.51637934 -1.10024683 31.12289328 -1.10573006 29.72941589 C-1.14326663 19.7758566 -0.72531362 9.92113482 0 0 Z " transform="translate(4,128)" style="fill: #1C380D;"/><path d="M0 0 C0.33 0 0.66 0 1 0 C1.02488717 4.69563418 1.04294796 9.39122919 1.05493164 14.08691406 C1.05993231 15.68132192 1.06673501 17.27572525 1.07543945 18.87011719 C1.0876933 21.17383954 1.0932711 23.47750078 1.09765625 25.78125 C1.10281754 26.48366821 1.10797882 27.18608643 1.11329651 27.90979004 C1.1140914 35.06718127 0.8378816 40.9010443 -3.09765625 47.10546875 C-4.1823031 49.3827576 -4.30522977 51.17436568 -4.4375 53.6875 C-4.91971799 61.02169913 -7.53849019 68.94593886 -12.8125 74.25 C-13.534375 74.8275 -14.25625 75.405 -15 76 C-15.33 75.01 -15.66 74.02 -16 73 C-15.401875 72.484375 -14.80375 71.96875 -14.1875 71.4375 C-10.47344679 67.29898357 -8.82552602 62.44847171 -8 57 C-7.34 57 -6.68 57 -6 57 C-6.19529297 55.89591797 -6.19529297 55.89591797 -6.39453125 54.76953125 C-6.53246094 53.79371094 -6.67039063 52.81789062 -6.8125 51.8125 C-6.96332031 50.84957031 -7.11414063 49.88664062 -7.26953125 48.89453125 C-7 46 -7 46 -4.52514648 43.86254883 C-1.1041895 39.98449404 -1.28368762 37.30794415 -1.328125 32.3046875 C-1.31537537 31.47542755 -1.30262573 30.6461676 -1.28948975 29.79177856 C-1.25326506 27.15250235 -1.2504814 24.51450261 -1.25 21.875 C-1.2283692 19.22883241 -1.19989495 16.5828566 -1.16766357 13.9367981 C-1.14993609 12.29304379 -1.13962286 10.64918912 -1.13751221 9.00534058 C-1.12084049 5.74513764 -1.03843985 3.11531956 0 0 Z " transform="translate(240,173)" style="fill: #1E1E0C;"/><path d="M0 0 C-0.350625 0.66 -0.70125 1.32 -1.0625 2 C-2.08641717 5.27653495 -1.65439741 7.27836877 -1.09375 10.59765625 C-0.9011703 15.53251102 -2.61491047 20.30478124 -4 25 C-6.31 25.33 -8.62 25.66 -11 26 C-10.34 25.67 -9.68 25.34 -9 25 C-9.04125 23.824375 -9.0825 22.64875 -9.125 21.4375 C-9.13596103 14.58685886 -8.17778888 7.7400473 -7 1 C-5.20912672 -0.79087328 -2.41373049 0 0 0 Z " transform="translate(107,224)" style="fill: #3E460B;"/><path d="M0 0 C0.33 0 0.66 0 1 0 C1.14892791 22.35522458 0.75818275 44.65780625 0 67 C-0.66 67 -1.32 67 -2 67 C-2 49.18 -2 31.36 -2 13 C-1.34 13 -0.68 13 0 13 C0 8.71 0 4.42 0 0 Z " transform="translate(2,192)" style="fill: #06250B;"/><path d="M0 0 C0.33 0 0.66 0 1 0 C1.02330097 9.29349443 1.04100476 18.58697862 1.05181217 27.88049603 C1.0570025 32.19711536 1.0640291 36.51371453 1.07543945 40.83032227 C1.08640656 45.00598661 1.09230573 49.1816317 1.09487724 53.35730934 C1.09670683 54.94027827 1.10027875 56.5232463 1.10573006 58.10620689 C1.1365827 67.44762083 0.89565823 76.69171743 0 86 C-0.66 86 -1.32 86 -2 86 C-2 75.77 -2 65.54 -2 55 C-1.67 55 -1.34 55 -1 55 C-0.67 36.85 -0.34 18.7 0 0 Z " transform="translate(2,119)" style="fill: #010C00;"/><path d="M0 0 C0.99 0.33 1.98 0.66 3 1 C3.144375 1.639375 3.28875 2.27875 3.4375 2.9375 C3.79151627 5.14184359 3.79151627 5.14184359 5.75 6.125 C6.4925 6.41375 7.235 6.7025 8 7 C8.763125 7.37125 9.52625 7.7425 10.3125 8.125 C13.63160934 9.20564025 16.53195511 9.13600176 20 9 C20.33 6.03 20.66 3.06 21 0 C21.66 0.33 22.32 0.66 23 1 C23.59355614 3.64860427 23.74209269 6.29197322 24 9 C25.98 9.66 27.96 10.32 30 11 C29.67 11.99 29.34 12.98 29 14 C27.68 13.67 26.36 13.34 25 13 C25 12.34 25 11.68 25 11 C24.14277344 11.09539062 23.28554687 11.19078125 22.40234375 11.2890625 C16.03146795 11.90675734 10.98316111 12.36833461 5 10 C3.576875 9.62875 3.576875 9.62875 2.125 9.25 C0 8 0 8 -0.875 5 C-1 2 -1 2 0 0 Z " transform="translate(83,240)" style="fill: #4D6324;"/><path d="M0 0 C1.73443359 0.14501953 1.73443359 0.14501953 3.50390625 0.29296875 C6.4375 0.8125 6.4375 0.8125 8.4375 2.8125 C7.7775 2.8125 7.1175 2.8125 6.4375 2.8125 C6.004375 3.988125 6.004375 3.988125 5.5625 5.1875 C4.4375 7.8125 4.4375 7.8125 2.4375 9.8125 C0.125 10.04296875 0.125 10.04296875 -2.5625 10 C-3.8928125 9.99033203 -3.8928125 9.99033203 -5.25 9.98046875 C-7.5625 9.8125 -7.5625 9.8125 -9.5625 8.8125 C-9.92496787 3.37548201 -9.92496787 3.37548201 -8.4609375 1.1015625 C-5.59758111 -0.84269184 -3.38938347 -0.32189675 0 0 Z " transform="translate(41.5625,241.1875)" style="fill: #997D59;"/><path d="M0 0 C2.3125 -0.3125 2.3125 -0.3125 5 0 C7.587193 2.85483366 8.21598902 5.37787166 8.375 9.125 C8 13 8 13 6.75 14.9375 C4.8277311 16.10459183 3.19957396 16.57427601 1 17 C0.34 17.33 -0.32 17.66 -1 18 C-1.02707139 15.75006641 -1.04642829 13.50003905 -1.0625 11.25 C-1.07410156 9.99703125 -1.08570313 8.7440625 -1.09765625 7.453125 C-1.02021027 4.71463499 -0.82780815 2.58119707 0 0 Z " transform="translate(4,60)" style="fill: #2F1120;"/><path d="M0 0 C4 0 4 0 5.703125 1.25 C8.66586626 4.60178809 10.39136324 6.84761008 10.375 11.4375 C10.25125 12.613125 10.1275 13.78875 10 15 C6.7 15 3.4 15 0 15 C0 10.05 0 5.1 0 0 Z " transform="translate(254,249)" style="fill: #6387AE;"/><path d="M0 0 C3 2 3 2 4 5 C5.546875 4.7525 5.546875 4.7525 7.125 4.5 C10.48244326 4.06678152 13.62336157 3.91764297 17 4 C17.66 2.68 18.32 1.36 19 0 C20.125 4.75 20.125 4.75 19 7 C16.95764104 7.669099 14.88968451 8.26093123 12.8125 8.8125 C7.15127124 10.44585594 7.15127124 10.44585594 2.4375 13.8125 C1.633125 14.534375 0.82875 15.25625 0 16 C-2.375 15.8125 -2.375 15.8125 -4 15 C-2.6875 13 -2.6875 13 -1 11 C-0.01 11 0.98 11 2 11 C1.67 10.113125 1.34 9.22625 1 8.3125 C0.08777857 5.29076653 -0.18330958 3.11626294 0 0 Z " transform="translate(125,244)" style="fill: #38583B;"/><path d="M0 0 C1.5843317 0.08768248 3.16753567 0.19587329 4.75 0.3125 C6.07257813 0.39951172 6.07257813 0.39951172 7.421875 0.48828125 C10.35993298 1.07144124 11.69039473 2.15041878 14 4 C16.33183607 4.67188497 18.66501142 5.33915417 21 6 C21.33 6.66 21.66 7.32 22 8 C14.74 8 7.48 8 0 8 C-1.09658936 4.71023192 -0.79953138 3.28696233 0 0 Z " transform="translate(66,244)" style="fill: #95967C;"/><path d="M0 0 C0.33 0 0.66 0 1 0 C1 9.9 1 19.8 1 30 C-1.97 30 -4.94 30 -8 30 C-7.42652986 25.98570903 -6.11954696 23.42388355 -4 20 C-0.50933019 13.5556865 -0.31607744 7.24798269 0 0 Z " transform="translate(240,224)" style="fill: #53610A;"/><path d="M0 0 C1.18492728 0.78563012 2.35236122 1.59833816 3.5 2.4375 C4.469375 3.13875 5.43875 3.84 6.4375 4.5625 C9.4302546 8.73421853 8.93465193 12.46315013 8.5 17.4375 C6.24754119 14.74908141 4.61786042 12.79108125 3.5 9.4375 C1.48491642 8.70426204 1.48491642 8.70426204 -0.5 8.4375 C-0.5 7.7775 -0.5 7.1175 -0.5 6.4375 C-1.49 6.4375 -2.48 6.4375 -3.5 6.4375 C-5.4249647 4.61556158 -6.87535531 2.54514717 -8.5 0.4375 C-4.91389335 -1.73589797 -3.92086929 -1.75038807 0 0 Z " transform="translate(72.5,206.5625)" style="fill: #0A4F05;"/><path d="M0 0 C0.66 0 1.32 0 2 0 C1.98839844 0.62648437 1.97679687 1.25296875 1.96484375 1.8984375 C1.95582031 2.71570313 1.94679687 3.53296875 1.9375 4.375 C1.92589844 5.18710938 1.91429687 5.99921875 1.90234375 6.8359375 C1.85533666 9.04937142 1.85533666 9.04937142 3 11 C2.67 11.66 2.34 12.32 2 13 C3.43640171 13.19573608 4.87419504 13.38127816 6.3125 13.5625 C7.11300781 13.66691406 7.91351563 13.77132812 8.73828125 13.87890625 C11.16817116 14.14755178 11.16817116 14.14755178 14 13 C16.35188447 13.59793673 18.68925595 14.25881795 21 15 C21 15.66 21 16.32 21 17 C20.37657715 16.99476318 19.7531543 16.98952637 19.11083984 16.98413086 C7.35961973 16.89860051 -4.29200107 16.86369508 -16 18 C-12.96739103 15.97826068 -11.91309963 15.70661562 -8.4375 15.4375 C-5.09342768 15.18539562 -5.09342768 15.18539562 -2 14 C-1.53193355 11.66255706 -1.17330206 9.30260921 -0.875 6.9375 C-0.62363281 5.00197266 -0.62363281 5.00197266 -0.3671875 3.02734375 C-0.24601563 2.02832031 -0.12484375 1.02929688 0 0 Z " transform="translate(154,235)" style="fill: #1A2F0B;"/><path d="M0 0 C1.5 1.375 1.5 1.375 3 3 C3 3.66 3 4.32 3 5 C9.93 5 16.86 5 24 5 C24 5.33 24 5.66 24 6 C7.5 6 -9 6 -26 6 C-26 5.67 -26 5.34 -26 5 C-22.97265625 4.75585938 -22.97265625 4.75585938 -19.9453125 4.51171875 C-17.60480784 4.12606964 -17.60480784 4.12606964 -16 1 C-15.01 1 -14.02 1 -13 1 C-13 1.66 -13 2.32 -13 3 C-12.01 2.67 -11.02 2.34 -10 2 C-10 2.66 -10 3.32 -10 4 C-8.70782829 3.52219697 -7.41627954 3.04270894 -6.125 2.5625 C-5.40570313 2.29566406 -4.68640625 2.02882812 -3.9453125 1.75390625 C-1.96351155 1.02083146 -1.96351155 1.02083146 0 0 Z " transform="translate(135,171)" style="fill: #154D15;"/><path d="M0 0 C1.95216435 1.95216435 2.84826645 3.53199953 4 6 C4.63808594 5.91621094 5.27617187 5.83242187 5.93359375 5.74609375 C6.75988281 5.64425781 7.58617187 5.54242188 8.4375 5.4375 C9.26121094 5.33308594 10.08492187 5.22867188 10.93359375 5.12109375 C11.61550781 5.08113281 12.29742187 5.04117188 13 5 C13.33 5.33 13.66 5.66 14 6 C16.85877909 6.23701239 19.69883297 6.42219182 22.5625 6.5625 C23.36880859 6.60568359 24.17511719 6.64886719 25.00585938 6.69335938 C27.00368805 6.79975262 29.0018207 6.90040888 31 7 C31 7.33 31 7.66 31 8 C29.06447266 8.18175781 29.06447266 8.18175781 27.08984375 8.3671875 C25.37236253 8.53612008 23.65491642 8.70540987 21.9375 8.875 C20.66616211 8.99294922 20.66616211 8.99294922 19.36914062 9.11328125 C12.44783266 9.80808437 6.48751116 11.40499554 0 14 C0 9.38 0 4.76 0 0 Z " transform="translate(3,243)" style="fill: #9AA174;"/><path d="M0 0 C3.3 0.33 6.6 0.66 10 1 C10 1.66 10 2.32 10 3 C11.13179687 3.19335938 12.26359375 3.38671875 13.4296875 3.5859375 C14.91153202 3.84854286 16.39329892 4.11158648 17.875 4.375 C18.99455078 4.56449219 18.99455078 4.56449219 20.13671875 4.7578125 C25.7734375 5.7734375 25.7734375 5.7734375 28 8 C30.57061311 8.64767793 30.57061311 8.64767793 33 9 C33 9.66 33 10.32 33 11 C30.31056352 10.74285478 27.62432453 10.4697388 24.9375 10.1875 C23.80924805 10.08211914 23.80924805 10.08211914 22.65820312 9.97460938 C17.55401607 9.42220818 13.64311907 8.18226596 9 6 C6.22111387 5.30859478 6.22111387 5.30859478 4 5 C4 4.34 4 3.68 4 3 C2.68 3 1.36 3 0 3 C0 2.01 0 1.02 0 0 Z " transform="translate(31,229)" style="fill: #61814F;"/><path d="M0 0 C0.33 0 0.66 0 1 0 C1.06058594 0.96421875 1.12117188 1.9284375 1.18359375 2.921875 C1.26738281 4.18515625 1.35117187 5.4484375 1.4375 6.75 C1.55931641 8.62945312 1.55931641 8.62945312 1.68359375 10.546875 C1.88330905 13.77356152 1.88330905 13.77356152 2.51000977 15.93701172 C4.39413397 23.86967216 2.57054127 32.68756339 1.5 40.625 C1.35691406 41.72457031 1.21382812 42.82414062 1.06640625 43.95703125 C0.71660766 46.63882045 0.36104277 49.31970553 0 52 C-0.33 52 -0.66 52 -1 52 C-1.02537644 45.39803896 -1.04287804 38.79609052 -1.05493164 32.1940918 C-1.05995719 29.94864431 -1.06677865 27.70320008 -1.07543945 25.45776367 C-1.08758281 22.22834466 -1.09324614 18.99896895 -1.09765625 15.76953125 C-1.10281754 14.76727005 -1.10797882 13.76500885 -1.11329651 12.7323761 C-1.11337204 11.79177841 -1.11344757 10.85118073 -1.11352539 9.88208008 C-1.115746 9.05823318 -1.11796661 8.23438629 -1.12025452 7.38557434 C-0.9920579 4.84244683 -0.55729388 2.48159069 0 0 Z " transform="translate(60,92)" style="fill: #E0EAF6;"/><path d="M0 0 C2.62664903 0.0867572 5.24978082 0.19357981 7.875 0.3125 C8.62136719 0.33505859 9.36773437 0.35761719 10.13671875 0.38085938 C12.099604 0.47811945 14.05328322 0.73042294 16 1 C17.94566808 3.91850212 18.5152457 5.57622848 19.1875 8.9375 C19.45626953 10.21947266 19.45626953 10.21947266 19.73046875 11.52734375 C20.00123705 14.01134859 19.77059444 15.64449502 19 18 C17.09598862 16.09598862 16.06479561 14.66574314 15.80078125 11.953125 C15.8113422 9.96766727 15.90084957 7.9830086 16 6 C15.34 6 14.68 6 14 6 C13.67 6.99 13.34 7.98 13 9 C11.66666667 7.66666667 10.33333333 6.33333333 9 5 C9.33 4.34 9.66 3.68 10 3 C5.545 3.495 5.545 3.495 1 4 C0.67 2.68 0.34 1.36 0 0 Z " transform="translate(40,185)" style="fill: #3C4505;"/><path d="M0 0 C5.94 0 11.88 0 18 0 C18 7.92 18 15.84 18 24 C17.01 23.67 16.02 23.34 15 23 C15 16.73 15 10.46 15 4 C13.35 3.67 11.7 3.34 10 3 C10 2.67 10 2.34 10 2 C6.7 1.67 3.4 1.34 0 1 C0 0.67 0 0.34 0 0 Z " transform="translate(224,17)" style="fill: #3D111B;"/><path d="M0 0 C-0.42073026 19.50084746 -0.42073026 19.50084746 -5 27 C-5.38027344 27.68835938 -5.76054687 28.37671875 -6.15234375 29.0859375 C-7.07147524 30.74102837 -8.03106095 32.3735666 -9 34 C-9.99 34 -10.98 34 -12 34 C-10.96334604 31.84694948 -9.90373049 29.85768854 -8.5625 27.875 C-4.54598977 20.48462117 -3.6323321 13.00659465 -3.30859375 4.6875 C-2.77034884 0 -2.77034884 0 0 0 Z " transform="translate(241,219)" style="fill: #424F04;"/><path d="M0 0 C0.99 0 1.98 0 3 0 C3.12224626 9.0598059 2.83930594 17.97746114 2 27 C0 26 0 26 -0.6171875 24.4296875 C-1.15821087 20.99584529 -1.14407913 17.59104172 -1.125 14.125 C-1.12886719 13.43019531 -1.13273437 12.73539063 -1.13671875 12.01953125 C-1.12897598 7.90812094 -0.79640249 4.0325777 0 0 Z " transform="translate(33,154)" style="fill: #273400;"/><path d="M0 0 C0.66 0 1.32 0 2 0 C2 7.92 2 15.84 2 24 C2.66 24.33 3.32 24.66 4 25 C3.67 27.31 3.34 29.62 3 32 C1.515 32.495 1.515 32.495 0 33 C0 22.11 0 11.22 0 0 Z " transform="translate(3,176)" style="fill: #4F643F;"/><path d="M0 0 C1.98 0 3.96 0 6 0 C6.33 0.66 6.66 1.32 7 2 C7.99 2.33 8.98 2.66 10 3 C13.86290449 7.41474799 14.40051939 10.61733039 14.140625 16.2421875 C14.07101563 17.11230469 14.07101563 17.11230469 14 18 C12.5 16.6875 12.5 16.6875 11 15 C11 14.01 11 13.02 11 12 C10.34 12 9.68 12 9 12 C9 10.68 9 9.36 9 8 C8.01 7.67 7.02 7.34 6 7 C6 5.68 6 4.36 6 3 C5.195625 2.87625 4.39125 2.7525 3.5625 2.625 C2.716875 2.41875 1.87125 2.2125 1 2 C0.67 1.34 0.34 0.68 0 0 Z " transform="translate(66,213)" style="fill: #22610C;"/><path d="M0 0 C0 0.66 0 1.32 0 2 C1.32 2.33 2.64 2.66 4 3 C4 3.33 4 3.66 4 4 C-3.625 5 -3.625 5 -7 5 C-7.12117188 6.05960938 -7.24234375 7.11921875 -7.3671875 8.2109375 C-7.53600752 9.59901324 -7.70530308 10.98703119 -7.875 12.375 C-7.95363281 13.07367188 -8.03226562 13.77234375 -8.11328125 14.4921875 C-8.7734375 19.7734375 -8.7734375 19.7734375 -11 22 C-10.85888117 19.24968413 -10.71228835 16.49984582 -10.5625 13.75 C-10.52318359 12.97269531 -10.48386719 12.19539062 -10.44335938 11.39453125 C-10.40146484 10.64042969 -10.35957031 9.88632813 -10.31640625 9.109375 C-10.27974854 8.41811523 -10.24309082 7.72685547 -10.20532227 7.01464844 C-9.99324476 4.93371671 -9.55491323 3.01427578 -9 1 C-5.846632 0.29925156 -3.27275026 0 0 0 Z " transform="translate(108,220)" style="fill: #253101;"/><path d="M0 0 C4.51617599 -0.07654536 8.59085217 -0.10228696 13 1 C13 1.66 13 2.32 13 3 C13.61488281 3.20496094 14.22976562 3.40992188 14.86328125 3.62109375 C19.93164062 5.31054688 19.93164062 5.31054688 25 7 C25 7.66 25 8.32 25 9 C25.66 9.33 26.32 9.66 27 10 C20.25 9.25 20.25 9.25 18 7 C16.01178687 6.60235737 14.01055661 6.26224651 12 6 C12 5.34 12 4.68 12 4 C10.700625 4.0928125 10.700625 4.0928125 9.375 4.1875 C5.55800967 3.97544498 3.28922464 2.87955693 0 1 C0 0.67 0 0.34 0 0 Z " transform="translate(58,239)" style="fill: #7D8460;"/><path d="M0 0 C0.33 0 0.66 0 1 0 C1.33 10.56 1.66 21.12 2 32 C3.98 31.34 5.96 30.68 8 30 C7.3125 32.875 7.3125 32.875 6 36 C3.375 37.375 3.375 37.375 1 38 C0 37 0 37 -0.11352539 33.48999023 C-0.11336626 31.92951578 -0.10767142 30.36903607 -0.09765625 28.80859375 C-0.0962413 27.98875504 -0.09482635 27.16891632 -0.09336853 26.32423401 C-0.08775289 23.69528618 -0.07519779 21.06642227 -0.0625 18.4375 C-0.05748701 16.65950643 -0.05292376 14.88151154 -0.04882812 13.10351562 C-0.03777839 8.73564455 -0.02050331 4.36783652 0 0 Z " transform="translate(2,224)" style="fill: #45755A;"/><path d="M0 0 C1.07636719 0.00322266 2.15273437 0.00644531 3.26171875 0.00976562 C4.38964844 0.01814453 5.51757812 0.02652344 6.6796875 0.03515625 C7.81535156 0.03966797 8.95101562 0.04417969 10.12109375 0.04882812 C12.93234388 0.0606401 15.7434898 0.07711118 18.5546875 0.09765625 C18.2246875 1.08765625 17.8946875 2.07765625 17.5546875 3.09765625 C9.6346875 3.09765625 1.7146875 3.09765625 -6.4453125 3.09765625 C-6.7753125 2.43765625 -7.1053125 1.77765625 -7.4453125 1.09765625 C-4.83580014 -0.20709993 -2.91829965 -0.01535947 0 0 Z " transform="translate(147.4453125,251.90234375)" style="fill: #012418;"/><path d="M0 0 C6.52076677 0.75239617 6.52076677 0.75239617 8.875 1.96875 C11.47654598 3.23126496 13.90211254 3.65035209 16.75 4.125 C17.73484375 4.29257813 18.7196875 4.46015625 19.734375 4.6328125 C20.85585938 4.81457031 20.85585938 4.81457031 22 5 C22 5.33 22 5.66 22 6 C14.50156373 7.61730978 8.32246153 5.97572514 1 4 C0.67 2.68 0.34 1.36 0 0 Z " transform="translate(36,234)" style="fill: #6EA069;"/><path d="M0 0 C-0.350625 0.66 -0.70125 1.32 -1.0625 2 C-2.08979028 5.28732889 -1.65566617 7.33087796 -1.09375 10.6640625 C-0.90856816 15.27817663 -2.58573617 19.65333604 -4 24 C-4.33 24 -4.66 24 -5 24 C-5.05787784 20.37506666 -5.0935542 16.75025143 -5.125 13.125 C-5.14175781 12.09246094 -5.15851563 11.05992187 -5.17578125 9.99609375 C-5.18222656 9.00996094 -5.18867187 8.02382812 -5.1953125 7.0078125 C-5.20578613 6.09660645 -5.21625977 5.18540039 -5.22705078 4.24658203 C-4.85018969 0.51768336 -3.62498975 0 0 0 Z " transform="translate(107,224)" style="fill: #343002;"/><path d="M0 0 C3.96 0 7.92 0 12 0 C11.67 0.66 11.34 1.32 11 2 C12.32 2.33 13.64 2.66 15 3 C14.67 3.66 14.34 4.32 14 5 C8.98537403 5.93493027 5.02721527 6.13112344 0 5 C0 3.35 0 1.7 0 0 Z " transform="translate(224,18)" style="fill: #2E0C0D;"/><path d="M0 0 C4.27944625 4.27944625 4.04423551 8.06689277 4.0625 13.875 C4.0466164 15.25006609 4.02749766 16.62511713 4 18 C4.99 18 5.98 18 7 18 C7 18.99 7 19.98 7 21 C8.32 21 9.64 21 11 21 C11.33 21.99 11.66 22.98 12 24 C5.42307692 22.90384615 5.42307692 22.90384615 3 21 C2.25 17.375 2.25 17.375 2 14 C1.67 14 1.34 14 1 14 C0.67 9.38 0.34 4.76 0 0 Z " transform="translate(71,222)" style="fill: #63734A;"/><path d="M0 0 C1.66611905 -0.042721 3.33382885 -0.04063832 5 0 C6 1 6 1 6.375 4.875 C6.3671875 7.0546875 6.3671875 7.0546875 6 9 C3.5 11 3.5 11 1 12 C-0.26237731 9.47524538 -0.09856404 7.68799534 -0.0625 4.875 C-0.05347656 3.96492188 -0.04445312 3.05484375 -0.03515625 2.1171875 C-0.02355469 1.41851562 -0.01195312 0.71984375 0 0 Z " transform="translate(4,60)" style="fill: #2D1E32;"/><path d="M0 0 C2.33170916 4.66341832 3.06045541 6.73043646 2.8125 11.9375 C2.74234366 15.34964921 2.9747268 15.9620902 5 19 C5.66 19.66 6.32 20.32 7 21 C4 22 4 22 0 20 C0 13.4 0 6.8 0 0 Z " transform="translate(39,162)" style="fill: #403B0B;"/><path d="M0 0 C2.475 0.99 2.475 0.99 5 2 C5 2.66 5 3.32 5 4 C7.94102229 4.84604751 10.56766268 5.13522521 13.625 5.125 C14.40101562 5.12757813 15.17703125 5.13015625 15.9765625 5.1328125 C18.06959248 5.12673369 18.06959248 5.12673369 20 4 C22.125 4.9375 22.125 4.9375 24 6 C19.37630977 7.80679587 15.57471347 8.21839082 10.625 8.125 C9.37976563 8.10695313 8.13453125 8.08890625 6.8515625 8.0703125 C5.44003906 8.03550781 5.44003906 8.03550781 4 8 C3.71125 7.236875 3.4225 6.47375 3.125 5.6875 C2.03730987 2.84970692 2.03730987 2.84970692 0 0 Z " transform="translate(106,256)" style="fill: #3C556C;"/><path d="M0 0 C5.94 0 11.88 0 18 0 C18.33 0.99 18.66 1.98 19 3 C12.73 3 6.46 3 0 3 C0 2.01 0 1.02 0 0 Z " transform="translate(235,261)" style="fill: #54A5C2;"/><path d="M0 0 C4 0 4 0 5.703125 1.42578125 C6.21359375 2.04839844 6.7240625 2.67101562 7.25 3.3125 C7.77078125 3.92738281 8.2915625 4.54226562 8.828125 5.17578125 C10 7 10 7 10 10 C9.46375 9.690625 8.9275 9.38125 8.375 9.0625 C5.6015043 7.82172561 2.99957163 7.4090325 0 7 C0 4.69 0 2.38 0 0 Z " transform="translate(254,249)" style="fill: #51636E;"/><path d="M0 0 C1.5 1.375 1.5 1.375 3 3 C3 3.66 3 4.32 3 5 C4.65 5.33 6.3 5.66 8 6 C7.01 6.33 6.02 6.66 5 7 C5 9.64 5 12.28 5 15 C4.34 14.01 3.68 13.02 3 12 C2.01 12.495 2.01 12.495 1 13 C0.40667939 8.62426048 -0.13827236 4.42471556 0 0 Z " transform="translate(32,178)" style="fill: #414304;"/><path d="M0 0 C0.66 0 1.32 0 2 0 C2 4.62 2 9.24 2 14 C0.35 14 -1.3 14 -3 14 C-2.69147815 12.041036 -2.3780582 10.08284287 -2.0625 8.125 C-1.88847656 7.03445312 -1.71445313 5.94390625 -1.53515625 4.8203125 C-1 2 -1 2 0 0 Z " transform="translate(239,240)" style="fill: #6B7509;"/><path d="M0 0 C0.66 0.33 1.32 0.66 2 1 C2.59355614 3.64860427 2.74209269 6.29197322 3 9 C4.98 9.66 6.96 10.32 9 11 C8.67 11.99 8.34 12.98 8 14 C6.68 13.67 5.36 13.34 4 13 C4 12.34 4 11.68 4 11 C2.35 10.67 0.7 10.34 -1 10 C-1.125 3.375 -1.125 3.375 0 0 Z " transform="translate(104,240)" style="fill: #635B18;"/><path d="M0 0 C-0.99 0 -1.98 0 -3 0 C-3 0.66 -3 1.32 -3 2 C-1.35 2 0.3 2 2 2 C0.66666667 2.66666667 -0.66666667 3.33333333 -2 4 C-3.485 4.804375 -3.485 4.804375 -5 5.625 C-8 7 -8 7 -12 7 C-10.70989008 4.12206249 -9.42638194 2.03816083 -7 0 C-3.86650268 -1.04449911 -3.01031744 -0.93423645 0 0 Z " transform="translate(138,254)" style="fill: #072243;"/><path d="M0 0 C2 1.5 2 1.5 3 3 C1.12756019 4.87243981 -1.93659518 4.17380392 -4.4375 4.1875 C-5.61183594 4.20167969 -6.78617188 4.21585938 -7.99609375 4.23046875 C-11 4 -11 4 -13 2 C-8.47806839 -0.2609658 -4.96161052 -0.40012988 0 0 Z " transform="translate(61,240)" style="fill: #889570;"/><path d="M0 0 C2.9453125 2.7421875 2.9453125 2.7421875 3.4375 5.0625 C3.82450832 7.21173571 3.82450832 7.21173571 6.0625 8.25 C6.701875 8.4975 7.34125 8.745 8 9 C7.01 9.33 6.02 9.66 5 10 C4.67 10.99 4.34 11.98 4 13 C3.01 13.33 2.02 13.66 1 14 C0 13 0 13 -0.09765625 10.05859375 C-0.08605469 8.86363281 -0.07445312 7.66867188 -0.0625 6.4375 C-0.05347656 5.23996094 -0.04445312 4.04242188 -0.03515625 2.80859375 C-0.02355469 1.88175781 -0.01195312 0.95492187 0 0 Z " transform="translate(3,221)" style="fill: #84A75B;"/><path d="M0 0 C2.04943169 2.04943169 3.21078802 3.91921024 4.625 6.4375 C5.07101563 7.21996094 5.51703125 8.00242188 5.9765625 8.80859375 C7 11 7 11 7 14 C6.01 13.67 5.02 13.34 4 13 C3.01 13 2.02 13 1 13 C-0.00496852 9.98509443 -0.10335303 7.95818308 -0.0625 4.8125 C-0.05347656 3.91144531 -0.04445312 3.01039063 -0.03515625 2.08203125 C-0.02355469 1.39496094 -0.01195312 0.70789063 0 0 Z " transform="translate(58,186)" style="fill: #325019;"/><path d="M0 0 C-0.33 0.99 -0.66 1.98 -1 3 C-5.75 1.125 -5.75 1.125 -8 0 C-9.70363822 -0.22622081 -11.41328701 -0.40888473 -13.125 -0.5625 C-14.03507812 -0.64628906 -14.94515625 -0.73007813 -15.8828125 -0.81640625 C-16.58148438 -0.87699219 -17.28015625 -0.93757812 -18 -1 C-18 -1.66 -18 -2.32 -18 -3 C-10.5816485 -4.30912085 -6.61084638 -3.53603411 0 0 Z " transform="translate(112,255)" style="fill: #1E3E4D;"/><path d="M0 0 C0.33 0.66 0.66 1.32 1 2 C1.66 2 2.32 2 3 2 C1.51194289 7.80342274 -1.59097555 12.17590879 -5 17 C-5.33 16.34 -5.66 15.68 -6 15 C-6.66 14.67 -7.32 14.34 -8 14 C-7.24172908 12.82512964 -6.46792245 11.66027408 -5.6875 10.5 C-5.25824219 9.8503125 -4.82898438 9.200625 -4.38671875 8.53125 C-3.92910156 8.0259375 -3.47148437 7.520625 -3 7 C-2.01 7 -1.02 7 0 7 C0 4.69 0 2.38 0 0 Z " transform="translate(208,186)" style="fill: #E9EEDA;"/><path d="M0 0 C2.1875 0.3125 2.1875 0.3125 4 1 C4.12375 1.639375 4.2475 2.27875 4.375 2.9375 C4.684375 3.9584375 4.684375 3.9584375 5 5 C5.66 5.33 6.32 5.66 7 6 C7.625 9.0625 7.625 9.0625 8 12 C7.34 12 6.68 12 6 12 C5.34 10.35 4.68 8.7 4 7 C3.34 7 2.68 7 2 7 C2 6.34 2 5.68 2 5 C-0.475 4.01 -0.475 4.01 -3 3 C-1.75 1.4375 -1.75 1.4375 0 0 Z " transform="translate(68,215)" style="fill: #457221;"/><path d="M0 0 C1.5 1.3125 1.5 1.3125 3 3 C3 3.99 3 4.98 3 6 C3.66 6 4.32 6 5 6 C5.66 7.32 6.32 8.64 7 10 C3.88407501 11.03864166 2.9737344 11.09036928 0 10 C-1.36952673 7.26094655 -1.12621361 5.02912668 -1 2 C-0.67 1.34 -0.34 0.68 0 0 Z " transform="translate(61,206)" style="fill: #3F4F01;"/><path d="M0 0 C5.34228516 1.52636719 10.68457031 3.05273438 16.02685547 4.57910156 C16.98615967 4.85318848 16.98615967 4.85318848 17.96484375 5.1328125 C18.96644531 5.41898438 19.96804687 5.70515625 21 6 C21 6.33 21 6.66 21 7 C15.01187798 7.31516432 11.52821688 6.55935967 6 4 C4.01178687 3.60235737 2.01267638 3.24544834 0 3 C0 2.01 0 1.02 0 0 Z " transform="translate(30,235)" style="fill: #7A955F;"/><path d="M0 0 C10.395 0.99 10.395 0.99 21 2 C21 2.33 21 2.66 21 3 C19.91460937 3.06058594 18.82921875 3.12117188 17.7109375 3.18359375 C16.26561514 3.26806064 14.82030318 3.35270551 13.375 3.4375 C12.66214844 3.47681641 11.94929688 3.51613281 11.21484375 3.55664062 C7.08196318 3.80309681 3.07730976 4.23470053 -1 5 C-1 4.34 -1 3.68 -1 3 C-0.34 2.67 0.32 2.34 1 2 C0.67 1.34 0.34 0.68 0 0 Z " transform="translate(83,65)" style="fill: #151E16;"/><path d="M0 0 C-0.99 0.33 -1.98 0.66 -3 1 C-3.433125 2.2375 -3.433125 2.2375 -3.875 3.5 C-5 6 -5 6 -7.375 6.9375 C-10.26910509 7.00640726 -11.50987563 6.3616212 -14 5 C-12.23628182 3.96692229 -10.46374967 2.94887951 -8.6875 1.9375 C-7.70136719 1.36902344 -6.71523437 0.80054688 -5.69921875 0.21484375 C-3 -1 -3 -1 0 0 Z " transform="translate(200,208)" style="fill: #202E1A;"/><path d="M0 0 C1.93956814 0.255602 3.87665989 0.53004646 5.8125 0.8125 C7.43091797 1.03873047 7.43091797 1.03873047 9.08203125 1.26953125 C12.06440991 2.01612403 13.14223479 2.62075684 15 5 C14.34 6.32 13.68 7.64 13 9 C11.66666667 7.66666667 10.33333333 6.33333333 9 5 C9.33 4.34 9.66 3.68 10 3 C5.545 3.495 5.545 3.495 1 4 C0.67 2.68 0.34 1.36 0 0 Z " transform="translate(40,185)" style="fill: #61400E;"/><path d="M0 0 C0.33 0 0.66 0 1 0 C1.10171449 6.7809663 0.95900898 13.28693714 0 20 C0 21.32 0 22.64 0 24 C-0.66 24 -1.32 24 -2 24 C-4.21474076 18.95531271 -3.85072153 16.14089313 -2 11 C-1.34 11 -0.68 11 0 11 C0 7.37 0 3.74 0 0 Z " transform="translate(239,23)" style="fill: #210920;"/><path d="M0 0 C0.88945312 0.00322266 1.77890625 0.00644531 2.6953125 0.00976562 C4.07589844 0.02233398 4.07589844 0.02233398 5.484375 0.03515625 C6.42023437 0.03966797 7.35609375 0.04417969 8.3203125 0.04882812 C10.62506541 0.06058707 12.92968727 0.07702199 15.234375 0.09765625 C15.234375 0.42765625 15.234375 0.75765625 15.234375 1.09765625 C13.94402344 1.23042969 12.65367188 1.36320313 11.32421875 1.5 C9.60676352 1.67831502 7.88931601 1.85670438 6.171875 2.03515625 C4.90053711 2.16567383 4.90053711 2.16567383 3.60351562 2.29882812 C-1.20475466 2.80007638 -5.98511983 3.37766158 -10.765625 4.09765625 C-8.765625 1.09765625 -8.765625 1.09765625 -6.93847656 0.41625977 C-4.59143624 0.07211509 -2.37236087 -0.01520744 0 0 Z " transform="translate(18.765625,249.90234375)" style="fill: #8E9686;"/><path d="M0 0 C3.96 0.99 3.96 0.99 8 2 C8 2.66 8 3.32 8 4 C9.65 4 11.3 4 13 4 C13 4.33 13 4.66 13 5 C8.38 5 3.76 5 -1 5 C-1 2 -1 2 0 0 Z " transform="translate(67,246)" style="fill: #A79B91;"/><path d="M0 0 C0.66 0.99 1.32 1.98 2 3 C0.421924 3.84324672 -1.1627042 4.67423918 -2.75 5.5 C-3.63171875 5.9640625 -4.5134375 6.428125 -5.421875 6.90625 C-8 8 -8 8 -12 8 C-12 7.34 -12 6.68 -12 6 C-11.34 6 -10.68 6 -10 6 C-10 5.34 -10 4.68 -10 4 C-8 5 -8 5 -7 6 C-6.95875 5.38125 -6.9175 4.7625 -6.875 4.125 C-6.58625 3.42375 -6.2975 2.7225 -6 2 C-2.9375 0.75 -2.9375 0.75 0 0 Z " transform="translate(194,206)" style="fill: #DEEAD9;"/><path d="M0 0 C1.48117801 0.28127421 2.95993249 0.57533732 4.4375 0.875 C5.67306641 1.11863281 5.67306641 1.11863281 6.93359375 1.3671875 C7.61550781 1.57601562 8.29742187 1.78484375 9 2 C9.33 2.66 9.66 3.32 10 4 C2.74 4 -4.52 4 -12 4 C-12 3.67 -12 3.34 -12 3 C-5.565 2.505 -5.565 2.505 1 2 C0.67 1.34 0.34 0.68 0 0 Z " transform="translate(78,248)" style="fill: #8F8F88;"/><path d="M0 0 C0.66 0 1.32 0 2 0 C1.98839844 0.62648437 1.97679687 1.25296875 1.96484375 1.8984375 C1.95582031 2.71570313 1.94679687 3.53296875 1.9375 4.375 C1.92589844 5.18710938 1.91429687 5.99921875 1.90234375 6.8359375 C1.85533666 9.04937142 1.85533666 9.04937142 3 11 C2.67 11.66 2.34 12.32 2 13 C4.97 13.495 4.97 13.495 8 14 C8 14.33 8 14.66 8 15 C5.66705225 15.04241723 3.33297433 15.04092937 1 15 C0 14 0 14 -0.09765625 10.83984375 C-0.08025391 8.90818359 -0.08025391 8.90818359 -0.0625 6.9375 C-0.05347656 5.64714844 -0.04445312 4.35679687 -0.03515625 3.02734375 C-0.02355469 2.02832031 -0.01195312 1.02929688 0 0 Z " transform="translate(154,235)" style="fill: #353507;"/><path d="M0 0 C1.32 0.66 2.64 1.32 4 2 C1.22237877 5.60062011 -1.73991357 8.83047153 -5 12 C-4.42365861 7.24518354 -2.44931479 4.02951788 0 0 Z " transform="translate(210,190)" style="fill: #212618;"/><path d="M0 0 C0.33 0.99 0.66 1.98 1 3 C0.34 3 -0.32 3 -1 3 C-1 3.66 -1 4.32 -1 5 C-5.29 5 -9.58 5 -14 5 C-14.33 3.68 -14.66 2.36 -15 1 C-14.34 1 -13.68 1 -13 1 C-13 1.66 -13 2.32 -13 3 C-12.01 2.67 -11.02 2.34 -10 2 C-10 2.66 -10 3.32 -10 4 C-8.70782829 3.52219697 -7.41627954 3.04270894 -6.125 2.5625 C-5.40570313 2.29566406 -4.68640625 2.02882812 -3.9453125 1.75390625 C-1.96351155 1.02083146 -1.96351155 1.02083146 0 0 Z " transform="translate(135,171)" style="fill: #304E20;"/><path d="M0 0 C1.18851563 0.00902344 2.37703125 0.01804688 3.6015625 0.02734375 C4.51679688 0.03894531 5.43203125 0.05054688 6.375 0.0625 C3.02504671 3.99372373 3.02504671 3.99372373 0.0859375 4.3046875 C-0.68492187 4.18351563 -1.45578125 4.06234375 -2.25 3.9375 C-3.02601563 3.83179688 -3.80203125 3.72609375 -4.6015625 3.6171875 C-6.625 3.0625 -6.625 3.0625 -8.625 1.0625 C-5.74084117 -0.37957941 -3.20778472 -0.03144887 0 0 Z " transform="translate(195.625,250.9375)" style="fill: #041714;"/><path d="M0 0 C0.33 1.65 0.66 3.3 1 5 C1.99 5.33 2.98 5.66 4 6 C-4.57142857 6.14285714 -4.57142857 6.14285714 -8 5 C-8 4.34 -8 3.68 -8 3 C-7.195625 2.690625 -6.39125 2.38125 -5.5625 2.0625 C-0.58823529 0 -0.58823529 0 0 0 Z " transform="translate(228,248)" style="fill: #26301D;"/><path d="M0 0 C0.66 0.33 1.32 0.66 2 1 C0.35821735 5.77609498 -2.26546702 9.79382904 -5 14 C-6.32 13.34 -7.64 12.68 -9 12 C-9 11.34 -9 10.68 -9 10 C-8.360625 9.71125 -7.72125 9.4225 -7.0625 9.125 C-4.84793921 8.17176549 -4.84793921 8.17176549 -4 6 C-3.34 6 -2.68 6 -2 6 C-1.855625 5.38125 -1.71125 4.7625 -1.5625 4.125 C-1 2 -1 2 0 0 Z " transform="translate(66,78)" style="fill: #1E2A1C;"/><path d="M0 0 C1 2 1 2 0.546875 4.05859375 C0.28390625 4.84363281 0.0209375 5.62867188 -0.25 6.4375 C-0.62898437 7.61119141 -0.62898437 7.61119141 -1.015625 8.80859375 C-2.05459263 11.1215336 -3.0289534 12.42011471 -5 14 C-5.66 14 -6.32 14 -7 14 C-6.625 11.5625 -6.625 11.5625 -6 9 C-5.34 8.67 -4.68 8.34 -4 8 C-2.87775145 6.11986894 -2.87775145 6.11986894 -1.875 3.9375 C-1.34519531 2.83728516 -1.34519531 2.83728516 -0.8046875 1.71484375 C-0.53914062 1.14894531 -0.27359375 0.58304688 0 0 Z " transform="translate(235,237)" style="fill: #343E01;"/><path d="M0 0 C0.58201172 0.73669922 0.58201172 0.73669922 1.17578125 1.48828125 C3.61211696 3.50725753 5.06930672 3.30898805 8.1875 3.1875 C9.08855469 3.16042969 9.98960938 3.13335937 10.91796875 3.10546875 C11.60503906 3.07066406 12.29210937 3.03585937 13 3 C12.67 3.99 12.34 4.98 12 6 C10.58376784 6.05447047 9.16691809 6.09300508 7.75 6.125 C6.96109375 6.14820313 6.1721875 6.17140625 5.359375 6.1953125 C2.79268059 5.9828378 1.2083933 5.28654105 -1 4 C-0.67 2.68 -0.34 1.36 0 0 Z " transform="translate(112,256)" style="fill: #495B4F;"/><path d="M0 0 C3.36116483 2.24077655 4.01952246 3.16722417 5 7 C4.3125 9.75 4.3125 9.75 3 12 C2.01 12.33 1.02 12.66 0 13 C-0.99 14.485 -0.99 14.485 -2 16 C-2.66 15.67 -3.32 15.34 -4 15 C-2.6875 13 -2.6875 13 -1 11 C-0.01 11 0.98 11 2 11 C1.67 10.113125 1.34 9.22625 1 8.3125 C0.08777857 5.29076653 -0.18330958 3.11626294 0 0 Z " transform="translate(125,244)" style="fill: #4B4F1A;"/><path d="M0 0 C2.375 -0.125 2.375 -0.125 5 0 C7 2 7 2 7 5 C4.69 5 2.38 5 0 5 C0 3.35 0 1.7 0 0 Z " transform="translate(7,14)" style="fill: #1D4526;"/><path d="M0 0 C0.99 0 1.98 0 3 0 C3.33 1.65 3.66 3.3 4 5 C5.98 5.66 7.96 6.32 10 7 C10 7.33 10 7.66 10 8 C8.72125 8.061875 7.4425 8.12375 6.125 8.1875 C5.40570313 8.22230469 4.68640625 8.25710937 3.9453125 8.29296875 C3.30335938 8.19628906 2.66140625 8.09960938 2 8 C-0.1519437 4.77208445 -0.20086443 3.71599191 0 0 Z " transform="translate(136,168)" style="fill: #0E3006;"/><path d="M0 0 C1.0625 1.8125 1.0625 1.8125 2 4 C1.67 4.99 1.34 5.98 1 7 C-3.29 6.67 -7.58 6.34 -12 6 C-11.67 5.34 -11.34 4.68 -11 4 C-7.7 4 -4.4 4 -1 4 C-0.67 2.68 -0.34 1.36 0 0 Z " transform="translate(143,244)" style="fill: #3B4B10;"/><path d="M0 0 C1.09570312 0.10183594 2.19140625 0.20367187 3.3203125 0.30859375 C4.16335937 0.39238281 5.00640625 0.47617188 5.875 0.5625 C5.875 1.2225 5.875 1.8825 5.875 2.5625 C1.255 2.5625 -3.365 2.5625 -8.125 2.5625 C-8.125 1.9025 -8.125 1.2425 -8.125 0.5625 C-5.28943413 -0.85528293 -3.1341294 -0.30007622 0 0 Z " transform="translate(193.125,253.4375)" style="fill: #001722;"/><path d="M0 0 C0.33 0 0.66 0 1 0 C1.29162929 4.95769796 1.12940055 8.02806853 -2 12 C-2.66 12 -3.32 12 -4 12 C-4 12.66 -4 13.32 -4 14 C-4.99 13.67 -5.98 13.34 -7 13 C-6.401875 12.34 -5.80375 11.68 -5.1875 11 C-2.57574169 7.41816003 -1.41905856 4.18622274 0 0 Z " transform="translate(233,234)" style="fill: #262C01;"/><path d="M0 0 C0.33 0.99 0.66 1.98 1 3 C2.65 3.33 4.3 3.66 6 4 C5.25 5.9375 5.25 5.9375 4 8 C2.68 8.33 1.36 8.66 0 9 C0 6.03 0 3.06 0 0 Z " transform="translate(3,248)" style="fill: #9FB48E;"/><path d="M0 0 C3.90381822 3.90381822 3.56244183 5.66179036 4 11 C3.34 11 2.68 11 2 11 C1.67 11.99 1.34 12.98 1 14 C0.67 9.38 0.34 4.76 0 0 Z " transform="translate(71,222)" style="fill: #5B743A;"/><path d="M0 0 C0.33 0 0.66 0 1 0 C1.33 5.28 1.66 10.56 2 16 C1.01 16 0.02 16 -1 16 C-0.67 10.72 -0.34 5.44 0 0 Z " transform="translate(4,160)" style="fill: #314C17;"/><path d="M0 0 C4.95 0 9.9 0 15 0 C14.67 0.66 14.34 1.32 14 2 C8.98537403 2.93493027 5.02721527 3.13112344 0 2 C0 1.34 0 0.68 0 0 Z " transform="translate(224,21)" style="fill: #241416;"/><path d="M0 0 C5.94 0.33 11.88 0.66 18 1 C18 1.33 18 1.66 18 2 C12.06 2.33 6.12 2.66 0 3 C0 2.01 0 1.02 0 0 Z " transform="translate(14,16)" style="fill: #2D2A11;"/><path d="M0 0 C0.66 0 1.32 0 2 0 C2.93402724 5.41735797 3.20808081 8.80451575 1 14 C0.67 14 0.34 14 0 14 C0 9.38 0 4.76 0 0 Z " transform="translate(103,229)" style="fill: #4A440B;"/><path d="M0 0 C0.33 0 0.66 0 1 0 C1 1.65 1 3.3 1 5 C1.66 5 2.32 5 3 5 C3.1875 7.3125 3.1875 7.3125 3 10 C1.48828125 11.66796875 1.48828125 11.66796875 0 13 C-0.19466332 11.20909747 -0.38051213 9.41723495 -0.5625 7.625 C-0.66691406 6.62726563 -0.77132812 5.62953125 -0.87890625 4.6015625 C-1 2 -1 2 0 0 Z " transform="translate(36,135)" style="fill: #202403;"/><path d="M0 0 C8.57142857 1 8.57142857 1 12 2 C8.53001271 4.31332486 7.07490752 4.33957563 3 4 C2.01 3.34 1.02 2.68 0 2 C0 1.34 0 0.68 0 0 Z " transform="translate(92,248)" style="fill: #3B562B;"/><path d="M0 0 C2.375 0.625 2.375 0.625 5 2 C6.45505179 5.04238103 7.15446097 7.0217472 6.625 10.375 C6.41875 10.91125 6.2125 11.4475 6 12 C5.67 10.35 5.34 8.7 5 7 C4.34 7 3.68 7 3 7 C3 5.68 3 4.36 3 3 C2.01 2.67 1.02 2.34 0 2 C0 1.34 0 0.68 0 0 Z " transform="translate(72,218)" style="fill: #2E6A15;"/><path d="M0 0 C1.98 1.65 3.96 3.3 6 5 C3.66682784 5.77772405 1.38564077 6.42415568 -1 7 C-1.33 5.68 -1.66 4.36 -2 3 C-1.34 2.67 -0.68 2.34 0 2 C0 1.34 0 0.68 0 0 Z " transform="translate(66,200)" style="fill: #275F23;"/><path d="M0 0 C0.66 0.33 1.32 0.66 2 1 C2.36923077 8.50769231 2.36923077 8.50769231 0.5 11 C0.005 11.33 -0.49 11.66 -1 12 C-1.66 11.67 -2.32 11.34 -3 11 C-2.34 10.01 -1.68 9.02 -1 8 C-0.54860541 5.9507906 -0.54860541 5.9507906 -0.375 3.8125 C-0.25125 2.554375 -0.1275 1.29625 0 0 Z " transform="translate(10,64)" style="fill: #271315;"/><path d="M0 0 C5.01113235 1.4317521 6.94469549 3.98445693 10 8 C8.02 8 6.04 8 4 8 C3.71125 7.236875 3.4225 6.47375 3.125 5.6875 C2.03730987 2.84970692 2.03730987 2.84970692 0 0 Z " transform="translate(106,256)" style="fill: #406076;"/><path d="M0 0 C0.33 0 0.66 0 1 0 C1 4.62 1 9.24 1 14 C0.01 14 -0.98 14 -2 14 C-1.855625 13.175 -1.71125 12.35 -1.5625 11.5 C-0.94746848 7.67313722 -0.46439363 3.84783293 0 0 Z " transform="translate(240,240)" style="fill: #7C851E;"/><path d="M0 0 C-0.1135629 1.64666203 -0.24117381 3.29236082 -0.375 4.9375 C-0.47941406 6.31228516 -0.47941406 6.31228516 -0.5859375 7.71484375 C-0.72257813 8.46894531 -0.85921875 9.22304687 -1 10 C-1.99 10.495 -1.99 10.495 -3 11 C-3.05399736 9.54207116 -3.09279177 8.08357288 -3.125 6.625 C-3.15980469 5.40683594 -3.15980469 5.40683594 -3.1953125 4.1640625 C-3.00494385 2.0547779 -2.62110453 0 0 0 Z " transform="translate(241,219)" style="fill: #3C4306;"/><path d="M0 0 C1.9375 0.75 1.9375 0.75 4 2 C4.75 4.125 4.75 4.125 5 6 C4.01 5.67 3.02 5.34 2 5 C2.33 5.99 2.66 6.98 3 8 C2.34 8 1.68 8 1 8 C0.34 5.69 -0.32 3.38 -1 1 C-0.67 0.67 -0.34 0.34 0 0 Z " transform="translate(62,198)" style="fill: #104300;"/><path d="M0 0 C1.65 0 3.3 0 5 0 C5.33 1.32 5.66 2.64 6 4 C4.02 4 2.04 4 0 4 C0 2.68 0 1.36 0 0 Z " transform="translate(4,60)" style="fill: #171F23;"/><path d="M0 0 C0.99 0.495 0.99 0.495 2 1 C2 1.66 2 2.32 2 3 C4.31 3.33 6.62 3.66 9 4 C8.67 4.99 8.34 5.98 8 7 C6.68 6.67 5.36 6.34 4 6 C4 5.34 4 4.68 4 4 C2.68 4 1.36 4 0 4 C0 2.68 0 1.36 0 0 Z " transform="translate(104,247)" style="fill: #656131;"/><path d="M0 0 C-0.33 1.32 -0.66 2.64 -1 4 C-2.65 4.33 -4.3 4.66 -6 5 C-3.58064516 0 -3.58064516 0 0 0 Z " transform="translate(132,256)" style="fill: #041739;"/><path d="M0 0 C2.0625 0.4375 2.0625 0.4375 4 1 C4 2.65 4 4.3 4 6 C3.01 6 2.02 6 1 6 C0.34 4.35 -0.32 2.7 -1 1 C-0.67 0.67 -0.34 0.34 0 0 Z " transform="translate(77,212)" style="fill: #024201;"/><path d="M0 0 C0.33 0 0.66 0 1 0 C1.33 1.65 1.66 3.3 2 5 C3.98 5.66 5.96 6.32 8 7 C5 9 5 9 2.875 8.75 C1 8 1 8 0 6 C-0.039992 4.00039988 -0.04346799 1.99952758 0 0 Z " transform="translate(60,208)" style="fill: #4D5806;"/><path d="M0 0 C0.33 0 0.66 0 1 0 C1.33 3.3 1.66 6.6 2 10 C0 10 0 10 -2 8 C-2.125 5.375 -2.125 5.375 -2 3 C-1.34 3 -0.68 3 0 3 C0 2.01 0 1.02 0 0 Z " transform="translate(2,70)" style="fill: #0E0103;"/><path d="M0 0 C2.64 0 5.28 0 8 0 C7.01 1.485 7.01 1.485 6 3 C2.875 3.1875 2.875 3.1875 0 3 C0 2.01 0 1.02 0 0 Z " transform="translate(251,0)" style="fill: #AC513C;"/><path d="M0 0 C1.48199902 0.44909061 2.96055236 0.90956564 4.4375 1.375 C5.26121094 1.63023437 6.08492188 1.88546875 6.93359375 2.1484375 C9 3 9 3 10 5 C6.44219804 4.39009109 3.3171411 3.4216319 0 2 C0 1.34 0 0.68 0 0 Z " transform="translate(83,246)" style="fill: #67703A;"/><path d="M0 0 C2.97 0.33 5.94 0.66 9 1 C9 1.99 9 2.98 9 4 C5.625 3.6875 5.625 3.6875 2 3 C1.34 2.01 0.68 1.02 0 0 Z " transform="translate(76,209)" style="fill: #C3DFC5;"/><path d="M0 0 C2.475 0.99 2.475 0.99 5 2 C4.67 3.65 4.34 5.3 4 7 C2.35 5.68 0.7 4.36 -1 3 C-0.67 2.01 -0.34 1.02 0 0 Z " transform="translate(50,187)" style="fill: #564A02;"/><path d="M0 0 C2.16874252 0.50603992 3.99967627 0.99983813 6 2 C6 2.66 6 3.32 6 4 C6.66 4.33 7.32 4.66 8 5 C6.68 5 5.36 5 4 5 C4 4.34 4 3.68 4 3 C2.68 3 1.36 3 0 3 C0 2.01 0 1.02 0 0 Z " transform="translate(31,229)" style="fill: #5B8F5A;"/><path d="M0 0 C0.99 0.33 1.98 0.66 3 1 C3.125 4.375 3.125 4.375 3 8 C2.34 8.66 1.68 9.32 1 10 C0.67 6.7 0.34 3.4 0 0 Z " transform="translate(34,212)" style="fill: #5F672E;"/><path d="M0 0 C2 1 2 1 2.75 2.875 C3 5 3 5 1 8 C1 7.34 1 6.68 1 6 C0.34 6 -0.32 6 -1 6 C-1.042721 4.33388095 -1.04063832 2.66617115 -1 1 C-0.67 0.67 -0.34 0.34 0 0 Z " transform="translate(34,200)" style="fill: #485210;"/><path d="M0 0 C2.475 0.495 2.475 0.495 5 1 C4.01 1.33 3.02 1.66 2 2 C2 4.64 2 7.28 2 10 C1.67 10 1.34 10 1 10 C0.67 6.7 0.34 3.4 0 0 Z " transform="translate(35,183)" style="fill: #563F06;"/><path d="M0 0 C0.99 1.32 1.98 2.64 3 4 C2 5 2 5 -0.50390625 5.09765625 C-2.01791016 5.08025391 -2.01791016 5.08025391 -3.5625 5.0625 C-4.57441406 5.05347656 -5.58632812 5.04445312 -6.62890625 5.03515625 C-7.41136719 5.02355469 -8.19382812 5.01195312 -9 5 C-9 4.67 -9 4.34 -9 4 C-6.36 3.67 -3.72 3.34 -1 3 C-0.67 2.01 -0.34 1.02 0 0 Z " transform="translate(118,172)" style="fill: #174710;"/><path d="M0 0 C0.66 0.33 1.32 0.66 2 1 C1.67 2.32 1.34 3.64 1 5 C-0.98 5 -2.96 5 -5 5 C-3.35 3.35 -1.7 1.7 0 0 Z " transform="translate(79,71)" style="fill: #D0D8C9;"/><path d="M0 0 C5.75 -0.125 5.75 -0.125 8 1 C7.67 1.99 7.34 2.98 7 4 C4.08482708 2.92598892 2.22189824 2.22189824 0 0 Z " transform="translate(104,254)" style="fill: #274158;"/><path d="M0 0 C-0.928125 0.4021875 -0.928125 0.4021875 -1.875 0.8125 C-4.2995233 1.95556848 -4.2995233 1.95556848 -6 5 C-6 4.01 -6 3.02 -6 2 C-6.99 2 -7.98 2 -9 2 C-9 1.34 -9 0.68 -9 0 C-5.62182575 -0.84454356 -3.32534757 -1.10844919 0 0 Z " transform="translate(108,221)" style="fill: #182103;"/><path d="M0 0 C0.598125 0.20625 1.19625 0.4125 1.8125 0.625 C1.8125 1.285 1.8125 1.945 1.8125 2.625 C-0.1675 3.615 -0.1675 3.615 -2.1875 4.625 C-3.1775 3.635 -4.1675 2.645 -5.1875 1.625 C-2.1875 -0.375 -2.1875 -0.375 0 0 Z " transform="translate(70.1875,215.375)" style="fill: #496C16;"/><path d="M0 0 C0.99 0.33 1.98 0.66 3 1 C1.35 2.65 -0.3 4.3 -2 6 C-1.125 1.125 -1.125 1.125 0 0 Z " transform="translate(207,196)" style="fill: #2C3520;"/><path d="M0 0 C0.66 0.99 1.32 1.98 2 3 C1.01 3.495 1.01 3.495 0 4 C-0.66 4.99 -1.32 5.98 -2 7 C-2.33 6.01 -2.66 5.02 -3 4 C-1.5625 1.8125 -1.5625 1.8125 0 0 Z M2 0 C2.99 0.33 3.98 0.66 5 1 C4.01 1.33 3.02 1.66 2 2 C2 1.34 2 0.68 2 0 Z " transform="translate(65,84)" style="fill: #E1E9E0;"/><path d="M0 0 C0.33 0.66 0.66 1.32 1 2 C1.99 2 2.98 2 4 2 C4 3.65 4 5.3 4 7 C2.02 5.35 0.04 3.7 -2 2 C-1.34 1.34 -0.68 0.68 0 0 Z " transform="translate(260,249)" style="fill: #D5DED9;"/><path d="M0 0 C0.66 0.33 1.32 0.66 2 1 C-0.38957269 4.24299151 -2.2047869 6.50902342 -6 8 C-4.55746343 4.63408134 -2.66735273 2.48952921 0 0 Z " transform="translate(72,76)" style="fill: #B4BCB0;"/><path d="M0 0 C3.65316671 1.24976756 4.78065836 1.67098753 7 5 C6.01 5.495 6.01 5.495 5 6 C4.67 5.34 4.34 4.68 4 4 C3.01 4 2.02 4 1 4 C0.67 2.68 0.34 1.36 0 0 Z " transform="translate(193,75)" style="fill: #D4D9D5;"/><path d="M0 0 C0 0.66 0 1.32 0 2 C-2.875 2.625 -2.875 2.625 -6 3 C-6.66 2.34 -7.32 1.68 -8 1 C-5.29120665 -0.35439668 -2.99066732 -0.06501451 0 0 Z " transform="translate(90,69)" style="fill: #D7E5D9;"/></svg>